<mxfile host="Electron" agent="Mozilla/5.0 (Windows NT 10.0; Win64; x64) AppleWebKit/537.36 (KHTML, like Gecko) draw.io/26.0.4 Chrome/128.0.6613.186 Electron/32.2.5 Safari/537.36" version="26.0.4">
  <diagram name="Page-1" id="7ovBsZvw0-aW2n6-h1uS">
    <mxGraphModel dx="2231" dy="1299" grid="1" gridSize="10" guides="1" tooltips="1" connect="1" arrows="1" fold="1" page="1" pageScale="1" pageWidth="850" pageHeight="1100" math="0" shadow="0">
      <root>
        <mxCell id="0" />
        <mxCell id="1" parent="0" />
        <mxCell id="ofzu4_VkUkSll2sHKQfo-1" value="" style="rounded=0;whiteSpace=wrap;html=1;strokeColor=default;strokeWidth=1;perimeterSpacing=0;opacity=40;" parent="1" vertex="1">
          <mxGeometry x="140" y="90" width="80" height="80" as="geometry" />
        </mxCell>
        <mxCell id="ofzu4_VkUkSll2sHKQfo-2" value="" style="verticalLabelPosition=bottom;shadow=0;dashed=0;align=center;html=1;verticalAlign=top;strokeWidth=1;shape=mxgraph.mockup.markup.curlyBrace;whiteSpace=wrap;strokeColor=#999999;" parent="1" vertex="1">
          <mxGeometry x="140" y="30" width="80" height="20" as="geometry" />
        </mxCell>
        <mxCell id="ofzu4_VkUkSll2sHKQfo-3" value="70 px" style="text;html=1;align=center;verticalAlign=middle;resizable=0;points=[];autosize=1;strokeColor=none;fillColor=none;" parent="1" vertex="1">
          <mxGeometry x="155" width="50" height="30" as="geometry" />
        </mxCell>
        <mxCell id="ofzu4_VkUkSll2sHKQfo-4" value="" style="verticalLabelPosition=bottom;shadow=0;dashed=0;align=center;html=1;verticalAlign=top;strokeWidth=1;shape=mxgraph.mockup.markup.curlyBrace;whiteSpace=wrap;strokeColor=#999999;rotation=90;" parent="1" vertex="1">
          <mxGeometry x="210" y="120" width="80" height="20" as="geometry" />
        </mxCell>
        <mxCell id="ofzu4_VkUkSll2sHKQfo-5" value="70 px" style="text;html=1;align=center;verticalAlign=middle;resizable=0;points=[];autosize=1;strokeColor=none;fillColor=none;" parent="1" vertex="1">
          <mxGeometry x="260" y="115" width="50" height="30" as="geometry" />
        </mxCell>
        <mxCell id="ofzu4_VkUkSll2sHKQfo-6" value="" style="rounded=0;whiteSpace=wrap;html=1;fillColor=none;dashed=1;strokeColor=#999900;" parent="1" vertex="1">
          <mxGeometry x="140" y="70" width="80" height="120" as="geometry" />
        </mxCell>
        <mxCell id="ofzu4_VkUkSll2sHKQfo-9" value="Název" style="text;html=1;align=left;verticalAlign=middle;resizable=0;points=[];autosize=1;strokeColor=none;fillColor=none;spacing=0;" parent="1" vertex="1">
          <mxGeometry x="140" y="70" width="50" height="20" as="geometry" />
        </mxCell>
        <mxCell id="ofzu4_VkUkSll2sHKQfo-11" value="Typ" style="text;html=1;align=right;verticalAlign=middle;resizable=0;points=[];autosize=1;strokeColor=none;fillColor=none;spacing=0;" parent="1" vertex="1">
          <mxGeometry x="180" y="170" width="40" height="20" as="geometry" />
        </mxCell>
        <mxCell id="ofzu4_VkUkSll2sHKQfo-14" value="" style="labelPosition=right;align=left;strokeWidth=1;shape=mxgraph.mockup.markup.curlyBrace;html=1;shadow=0;dashed=0;strokeColor=#999999;direction=north;rotation=-180;" parent="1" vertex="1">
          <mxGeometry x="232" y="70" width="20" height="20" as="geometry" />
        </mxCell>
        <mxCell id="ofzu4_VkUkSll2sHKQfo-15" value="25 px" style="text;html=1;align=center;verticalAlign=middle;resizable=0;points=[];autosize=1;strokeColor=none;fillColor=none;" parent="1" vertex="1">
          <mxGeometry x="240" y="65" width="50" height="30" as="geometry" />
        </mxCell>
        <mxCell id="ofzu4_VkUkSll2sHKQfo-17" value="" style="labelPosition=right;align=left;strokeWidth=1;shape=mxgraph.mockup.markup.curlyBrace;html=1;shadow=0;dashed=0;strokeColor=#999999;direction=north;rotation=-180;" parent="1" vertex="1">
          <mxGeometry x="232" y="170" width="20" height="20" as="geometry" />
        </mxCell>
        <mxCell id="ofzu4_VkUkSll2sHKQfo-18" value="25 px" style="text;html=1;align=center;verticalAlign=middle;resizable=0;points=[];autosize=1;strokeColor=none;fillColor=none;" parent="1" vertex="1">
          <mxGeometry x="240" y="165" width="50" height="30" as="geometry" />
        </mxCell>
        <mxCell id="ofzu4_VkUkSll2sHKQfo-19" value="&lt;font style=&quot;font-size: 27px;&quot;&gt;42&lt;/font&gt;" style="rounded=0;whiteSpace=wrap;html=1;strokeColor=default;strokeWidth=1;perimeterSpacing=0;opacity=40;" parent="1" vertex="1">
          <mxGeometry x="140" y="300" width="80" height="80" as="geometry" />
        </mxCell>
        <mxCell id="ofzu4_VkUkSll2sHKQfo-20" value="" style="verticalLabelPosition=bottom;shadow=0;dashed=0;align=center;html=1;verticalAlign=top;strokeWidth=1;shape=mxgraph.mockup.markup.curlyBrace;whiteSpace=wrap;strokeColor=#999999;" parent="1" vertex="1">
          <mxGeometry x="140" y="240" width="80" height="20" as="geometry" />
        </mxCell>
        <mxCell id="ofzu4_VkUkSll2sHKQfo-21" value="70 px" style="text;html=1;align=center;verticalAlign=middle;resizable=0;points=[];autosize=1;strokeColor=none;fillColor=none;" parent="1" vertex="1">
          <mxGeometry x="155" y="210" width="50" height="30" as="geometry" />
        </mxCell>
        <mxCell id="ofzu4_VkUkSll2sHKQfo-22" value="" style="verticalLabelPosition=bottom;shadow=0;dashed=0;align=center;html=1;verticalAlign=top;strokeWidth=1;shape=mxgraph.mockup.markup.curlyBrace;whiteSpace=wrap;strokeColor=#999999;rotation=90;" parent="1" vertex="1">
          <mxGeometry x="210" y="330" width="80" height="20" as="geometry" />
        </mxCell>
        <mxCell id="ofzu4_VkUkSll2sHKQfo-23" value="70 px" style="text;html=1;align=center;verticalAlign=middle;resizable=0;points=[];autosize=1;strokeColor=none;fillColor=none;" parent="1" vertex="1">
          <mxGeometry x="260" y="325" width="50" height="30" as="geometry" />
        </mxCell>
        <mxCell id="ofzu4_VkUkSll2sHKQfo-24" value="" style="rounded=0;whiteSpace=wrap;html=1;fillColor=none;dashed=1;strokeColor=#3399FF;" parent="1" vertex="1">
          <mxGeometry x="140" y="280" width="80" height="120" as="geometry" />
        </mxCell>
        <mxCell id="ofzu4_VkUkSll2sHKQfo-25" value="Název" style="text;html=1;align=left;verticalAlign=middle;resizable=0;points=[];autosize=1;strokeColor=none;fillColor=none;spacing=0;" parent="1" vertex="1">
          <mxGeometry x="140" y="280" width="50" height="20" as="geometry" />
        </mxCell>
        <mxCell id="ofzu4_VkUkSll2sHKQfo-26" value="Typ" style="text;html=1;align=right;verticalAlign=middle;resizable=0;points=[];autosize=1;strokeColor=none;fillColor=none;spacing=0;" parent="1" vertex="1">
          <mxGeometry x="180" y="380" width="40" height="20" as="geometry" />
        </mxCell>
        <mxCell id="ofzu4_VkUkSll2sHKQfo-27" value="" style="labelPosition=right;align=left;strokeWidth=1;shape=mxgraph.mockup.markup.curlyBrace;html=1;shadow=0;dashed=0;strokeColor=#999999;direction=north;rotation=-180;" parent="1" vertex="1">
          <mxGeometry x="232" y="280" width="20" height="20" as="geometry" />
        </mxCell>
        <mxCell id="ofzu4_VkUkSll2sHKQfo-28" value="25 px" style="text;html=1;align=center;verticalAlign=middle;resizable=0;points=[];autosize=1;strokeColor=none;fillColor=none;" parent="1" vertex="1">
          <mxGeometry x="240" y="275" width="50" height="30" as="geometry" />
        </mxCell>
        <mxCell id="ofzu4_VkUkSll2sHKQfo-29" value="" style="labelPosition=right;align=left;strokeWidth=1;shape=mxgraph.mockup.markup.curlyBrace;html=1;shadow=0;dashed=0;strokeColor=#999999;direction=north;rotation=-180;" parent="1" vertex="1">
          <mxGeometry x="232" y="380" width="20" height="20" as="geometry" />
        </mxCell>
        <mxCell id="ofzu4_VkUkSll2sHKQfo-30" value="25 px" style="text;html=1;align=center;verticalAlign=middle;resizable=0;points=[];autosize=1;strokeColor=none;fillColor=none;" parent="1" vertex="1">
          <mxGeometry x="240" y="375" width="50" height="30" as="geometry" />
        </mxCell>
        <mxCell id="ofzu4_VkUkSll2sHKQfo-31" value="Hodnota proměnné" style="whiteSpace=wrap;html=1;shape=mxgraph.basic.document" parent="1" vertex="1">
          <mxGeometry y="335" width="100" height="45" as="geometry" />
        </mxCell>
        <mxCell id="ofzu4_VkUkSll2sHKQfo-34" value="" style="endArrow=none;dashed=1;html=1;strokeWidth=1;rounded=0;exitX=1;exitY=0.5;exitDx=0;exitDy=0;exitPerimeter=0;strokeColor=#FFFF00;" parent="1" source="ofzu4_VkUkSll2sHKQfo-31" edge="1">
          <mxGeometry width="50" height="50" relative="1" as="geometry">
            <mxPoint x="30" y="400" as="sourcePoint" />
            <mxPoint x="159" y="340" as="targetPoint" />
          </mxGeometry>
        </mxCell>
        <mxCell id="ofzu4_VkUkSll2sHKQfo-35" value="" style="rounded=0;whiteSpace=wrap;html=1;strokeColor=default;strokeWidth=1;perimeterSpacing=0;opacity=40;" parent="1" vertex="1">
          <mxGeometry x="480" y="300" width="80" height="80" as="geometry" />
        </mxCell>
        <mxCell id="ofzu4_VkUkSll2sHKQfo-36" value="" style="verticalLabelPosition=bottom;shadow=0;dashed=0;align=center;html=1;verticalAlign=top;strokeWidth=1;shape=mxgraph.mockup.markup.curlyBrace;whiteSpace=wrap;strokeColor=#999999;" parent="1" vertex="1">
          <mxGeometry x="480" y="240" width="80" height="20" as="geometry" />
        </mxCell>
        <mxCell id="ofzu4_VkUkSll2sHKQfo-37" value="70 px" style="text;html=1;align=center;verticalAlign=middle;resizable=0;points=[];autosize=1;strokeColor=none;fillColor=none;" parent="1" vertex="1">
          <mxGeometry x="495" y="210" width="50" height="30" as="geometry" />
        </mxCell>
        <mxCell id="ofzu4_VkUkSll2sHKQfo-38" value="" style="verticalLabelPosition=bottom;shadow=0;dashed=0;align=center;html=1;verticalAlign=top;strokeWidth=1;shape=mxgraph.mockup.markup.curlyBrace;whiteSpace=wrap;strokeColor=#999999;rotation=90;" parent="1" vertex="1">
          <mxGeometry x="550" y="330" width="80" height="20" as="geometry" />
        </mxCell>
        <mxCell id="ofzu4_VkUkSll2sHKQfo-39" value="70 px" style="text;html=1;align=center;verticalAlign=middle;resizable=0;points=[];autosize=1;strokeColor=none;fillColor=none;" parent="1" vertex="1">
          <mxGeometry x="600" y="325" width="50" height="30" as="geometry" />
        </mxCell>
        <mxCell id="ofzu4_VkUkSll2sHKQfo-40" value="" style="rounded=0;whiteSpace=wrap;html=1;fillColor=none;dashed=1;strokeColor=#FF3333;" parent="1" vertex="1">
          <mxGeometry x="480" y="280" width="80" height="120" as="geometry" />
        </mxCell>
        <mxCell id="ofzu4_VkUkSll2sHKQfo-41" value="Název" style="text;html=1;align=left;verticalAlign=middle;resizable=0;points=[];autosize=1;strokeColor=none;fillColor=none;spacing=0;" parent="1" vertex="1">
          <mxGeometry x="480" y="280" width="50" height="20" as="geometry" />
        </mxCell>
        <mxCell id="ofzu4_VkUkSll2sHKQfo-42" value="Typ" style="text;html=1;align=right;verticalAlign=middle;resizable=0;points=[];autosize=1;strokeColor=none;fillColor=none;spacing=0;" parent="1" vertex="1">
          <mxGeometry x="520" y="380" width="40" height="20" as="geometry" />
        </mxCell>
        <mxCell id="ofzu4_VkUkSll2sHKQfo-43" value="" style="labelPosition=right;align=left;strokeWidth=1;shape=mxgraph.mockup.markup.curlyBrace;html=1;shadow=0;dashed=0;strokeColor=#999999;direction=north;rotation=-180;" parent="1" vertex="1">
          <mxGeometry x="572" y="280" width="20" height="20" as="geometry" />
        </mxCell>
        <mxCell id="ofzu4_VkUkSll2sHKQfo-44" value="25 px" style="text;html=1;align=center;verticalAlign=middle;resizable=0;points=[];autosize=1;strokeColor=none;fillColor=none;" parent="1" vertex="1">
          <mxGeometry x="580" y="275" width="50" height="30" as="geometry" />
        </mxCell>
        <mxCell id="ofzu4_VkUkSll2sHKQfo-45" value="" style="labelPosition=right;align=left;strokeWidth=1;shape=mxgraph.mockup.markup.curlyBrace;html=1;shadow=0;dashed=0;strokeColor=#999999;direction=north;rotation=-180;" parent="1" vertex="1">
          <mxGeometry x="572" y="380" width="20" height="20" as="geometry" />
        </mxCell>
        <mxCell id="ofzu4_VkUkSll2sHKQfo-46" value="25 px" style="text;html=1;align=center;verticalAlign=middle;resizable=0;points=[];autosize=1;strokeColor=none;fillColor=none;" parent="1" vertex="1">
          <mxGeometry x="580" y="375" width="50" height="30" as="geometry" />
        </mxCell>
        <mxCell id="ofzu4_VkUkSll2sHKQfo-47" value="" style="ellipse;whiteSpace=wrap;html=1;aspect=fixed;fillColor=#FFFFFF;" parent="1" vertex="1">
          <mxGeometry x="510" y="330" width="20" height="20" as="geometry" />
        </mxCell>
        <mxCell id="ofzu4_VkUkSll2sHKQfo-49" value="" style="verticalLabelPosition=bottom;shadow=0;dashed=0;align=center;html=1;verticalAlign=top;strokeWidth=1;shape=mxgraph.mockup.markup.curlyBrace;whiteSpace=wrap;strokeColor=#999999;rotation=-180;" parent="1" vertex="1">
          <mxGeometry x="510" y="345" width="20" height="20" as="geometry" />
        </mxCell>
        <mxCell id="ofzu4_VkUkSll2sHKQfo-50" value="20 px" style="text;html=1;align=center;verticalAlign=middle;resizable=0;points=[];autosize=1;strokeColor=none;fillColor=none;spacing=0;" parent="1" vertex="1">
          <mxGeometry x="495" y="355" width="50" height="20" as="geometry" />
        </mxCell>
        <mxCell id="ofzu4_VkUkSll2sHKQfo-53" value="" style="verticalLabelPosition=bottom;shadow=0;dashed=0;align=center;html=1;verticalAlign=top;strokeWidth=1;shape=mxgraph.mockup.markup.curlyBrace;whiteSpace=wrap;strokeColor=#999999;rotation=-90;" parent="1" vertex="1">
          <mxGeometry x="495" y="330" width="20" height="20" as="geometry" />
        </mxCell>
        <mxCell id="ofzu4_VkUkSll2sHKQfo-54" value="20 px" style="text;html=1;align=center;verticalAlign=middle;resizable=0;points=[];autosize=1;strokeColor=none;fillColor=none;spacing=0;" parent="1" vertex="1">
          <mxGeometry x="460" y="330" width="50" height="20" as="geometry" />
        </mxCell>
        <mxCell id="ofzu4_VkUkSll2sHKQfo-55" value="" style="rounded=0;whiteSpace=wrap;html=1;strokeColor=default;strokeWidth=1;perimeterSpacing=0;opacity=40;" parent="1" vertex="1">
          <mxGeometry x="140" y="520" width="80" height="80" as="geometry" />
        </mxCell>
        <mxCell id="ofzu4_VkUkSll2sHKQfo-56" value="" style="verticalLabelPosition=bottom;shadow=0;dashed=0;align=center;html=1;verticalAlign=top;strokeWidth=1;shape=mxgraph.mockup.markup.curlyBrace;whiteSpace=wrap;strokeColor=#999999;" parent="1" vertex="1">
          <mxGeometry x="140" y="460" width="80" height="20" as="geometry" />
        </mxCell>
        <mxCell id="ofzu4_VkUkSll2sHKQfo-57" value="70 px" style="text;html=1;align=center;verticalAlign=middle;resizable=0;points=[];autosize=1;strokeColor=none;fillColor=none;" parent="1" vertex="1">
          <mxGeometry x="155" y="430" width="50" height="30" as="geometry" />
        </mxCell>
        <mxCell id="ofzu4_VkUkSll2sHKQfo-58" value="" style="verticalLabelPosition=bottom;shadow=0;dashed=0;align=center;html=1;verticalAlign=top;strokeWidth=1;shape=mxgraph.mockup.markup.curlyBrace;whiteSpace=wrap;strokeColor=#999999;rotation=90;" parent="1" vertex="1">
          <mxGeometry x="210" y="550" width="80" height="20" as="geometry" />
        </mxCell>
        <mxCell id="ofzu4_VkUkSll2sHKQfo-59" value="" style="rounded=0;whiteSpace=wrap;html=1;fillColor=none;dashed=1;strokeColor=#3399FF;" parent="1" vertex="1">
          <mxGeometry x="140" y="500" width="80" height="120" as="geometry" />
        </mxCell>
        <mxCell id="ofzu4_VkUkSll2sHKQfo-60" value="Název" style="text;html=1;align=left;verticalAlign=middle;resizable=0;points=[];autosize=1;strokeColor=none;fillColor=none;spacing=0;" parent="1" vertex="1">
          <mxGeometry x="140" y="500" width="50" height="20" as="geometry" />
        </mxCell>
        <mxCell id="ofzu4_VkUkSll2sHKQfo-61" value="Typ" style="text;html=1;align=right;verticalAlign=middle;resizable=0;points=[];autosize=1;strokeColor=none;fillColor=none;spacing=0;" parent="1" vertex="1">
          <mxGeometry x="180" y="600" width="40" height="20" as="geometry" />
        </mxCell>
        <mxCell id="ofzu4_VkUkSll2sHKQfo-62" value="" style="labelPosition=right;align=left;strokeWidth=1;shape=mxgraph.mockup.markup.curlyBrace;html=1;shadow=0;dashed=0;strokeColor=#999999;direction=north;rotation=-180;" parent="1" vertex="1">
          <mxGeometry x="232" y="500" width="20" height="20" as="geometry" />
        </mxCell>
        <mxCell id="ofzu4_VkUkSll2sHKQfo-63" value="25 px" style="text;html=1;align=center;verticalAlign=middle;resizable=0;points=[];autosize=1;strokeColor=none;fillColor=none;" parent="1" vertex="1">
          <mxGeometry x="240" y="495" width="50" height="30" as="geometry" />
        </mxCell>
        <mxCell id="ofzu4_VkUkSll2sHKQfo-64" value="" style="labelPosition=right;align=left;strokeWidth=1;shape=mxgraph.mockup.markup.curlyBrace;html=1;shadow=0;dashed=0;strokeColor=#999999;direction=north;rotation=-180;" parent="1" vertex="1">
          <mxGeometry x="232" y="600" width="20" height="20" as="geometry" />
        </mxCell>
        <mxCell id="ofzu4_VkUkSll2sHKQfo-65" value="25 px" style="text;html=1;align=center;verticalAlign=middle;resizable=0;points=[];autosize=1;strokeColor=none;fillColor=none;" parent="1" vertex="1">
          <mxGeometry x="240" y="595" width="50" height="30" as="geometry" />
        </mxCell>
        <mxCell id="ofzu4_VkUkSll2sHKQfo-66" value="Neinicializovaná proměnná" style="whiteSpace=wrap;html=1;shape=mxgraph.basic.document" parent="1" vertex="1">
          <mxGeometry y="525" width="100" height="45" as="geometry" />
        </mxCell>
        <mxCell id="ofzu4_VkUkSll2sHKQfo-67" value="70 px" style="text;html=1;align=center;verticalAlign=middle;resizable=0;points=[];autosize=1;strokeColor=none;fillColor=none;" parent="1" vertex="1">
          <mxGeometry x="260" y="545" width="50" height="30" as="geometry" />
        </mxCell>
        <mxCell id="ofzu4_VkUkSll2sHKQfo-68" value="" style="rounded=0;whiteSpace=wrap;html=1;strokeColor=default;strokeWidth=1;perimeterSpacing=0;opacity=40;" parent="1" vertex="1">
          <mxGeometry x="480" y="520" width="80" height="80" as="geometry" />
        </mxCell>
        <mxCell id="ofzu4_VkUkSll2sHKQfo-73" value="" style="rounded=0;whiteSpace=wrap;html=1;fillColor=none;dashed=1;strokeColor=#FF3333;" parent="1" vertex="1">
          <mxGeometry x="480" y="500" width="80" height="120" as="geometry" />
        </mxCell>
        <mxCell id="ofzu4_VkUkSll2sHKQfo-74" value="Název" style="text;html=1;align=left;verticalAlign=middle;resizable=0;points=[];autosize=1;strokeColor=none;fillColor=none;spacing=0;" parent="1" vertex="1">
          <mxGeometry x="480" y="500" width="50" height="20" as="geometry" />
        </mxCell>
        <mxCell id="ofzu4_VkUkSll2sHKQfo-75" value="Typ" style="text;html=1;align=right;verticalAlign=middle;resizable=0;points=[];autosize=1;strokeColor=none;fillColor=none;spacing=0;" parent="1" vertex="1">
          <mxGeometry x="520" y="600" width="40" height="20" as="geometry" />
        </mxCell>
        <mxCell id="ofzu4_VkUkSll2sHKQfo-80" style="rounded=0;orthogonalLoop=1;jettySize=auto;html=1;entryX=0;entryY=0;entryDx=0;entryDy=0;endSize=2;" parent="1" source="ofzu4_VkUkSll2sHKQfo-81" target="ofzu4_VkUkSll2sHKQfo-87" edge="1">
          <mxGeometry relative="1" as="geometry">
            <mxPoint x="520" y="460" as="targetPoint" />
            <Array as="points">
              <mxPoint x="520" y="480" />
              <mxPoint x="560" y="480" />
            </Array>
          </mxGeometry>
        </mxCell>
        <mxCell id="ofzu4_VkUkSll2sHKQfo-81" value="" style="ellipse;whiteSpace=wrap;html=1;aspect=fixed;fillColor=#FFFFFF;" parent="1" vertex="1">
          <mxGeometry x="510" y="550" width="20" height="20" as="geometry" />
        </mxCell>
        <mxCell id="ofzu4_VkUkSll2sHKQfo-87" value="&lt;span style=&quot;font-size: 27px;&quot;&gt;42&lt;/span&gt;" style="rounded=0;whiteSpace=wrap;html=1;strokeColor=default;strokeWidth=1;perimeterSpacing=0;opacity=40;" parent="1" vertex="1">
          <mxGeometry x="560" y="520" width="80" height="80" as="geometry" />
        </mxCell>
        <mxCell id="ofzu4_VkUkSll2sHKQfo-88" value="" style="rounded=0;whiteSpace=wrap;html=1;fillColor=none;dashed=1;strokeColor=#3399FF;" parent="1" vertex="1">
          <mxGeometry x="560" y="500" width="80" height="120" as="geometry" />
        </mxCell>
        <mxCell id="ofzu4_VkUkSll2sHKQfo-89" value="Název" style="text;html=1;align=left;verticalAlign=middle;resizable=0;points=[];autosize=1;strokeColor=none;fillColor=none;spacing=0;" parent="1" vertex="1">
          <mxGeometry x="560" y="500" width="50" height="20" as="geometry" />
        </mxCell>
        <mxCell id="ofzu4_VkUkSll2sHKQfo-90" value="Typ" style="text;html=1;align=right;verticalAlign=middle;resizable=0;points=[];autosize=1;strokeColor=none;fillColor=none;spacing=0;" parent="1" vertex="1">
          <mxGeometry x="600" y="600" width="40" height="20" as="geometry" />
        </mxCell>
        <mxCell id="ofzu4_VkUkSll2sHKQfo-92" value="&lt;span style=&quot;font-size: 24px;&quot;&gt;*&lt;/span&gt;" style="rounded=0;whiteSpace=wrap;html=1;strokeColor=default;strokeWidth=1;perimeterSpacing=0;opacity=40;" parent="1" vertex="1">
          <mxGeometry x="140" y="746" width="40" height="80" as="geometry" />
        </mxCell>
        <mxCell id="ofzu4_VkUkSll2sHKQfo-93" value="" style="verticalLabelPosition=bottom;shadow=0;dashed=0;align=center;html=1;verticalAlign=top;strokeWidth=1;shape=mxgraph.mockup.markup.curlyBrace;whiteSpace=wrap;strokeColor=#999999;" parent="1" vertex="1">
          <mxGeometry x="140" y="686" width="40" height="20" as="geometry" />
        </mxCell>
        <mxCell id="ofzu4_VkUkSll2sHKQfo-94" value="35 px" style="text;html=1;align=center;verticalAlign=middle;resizable=0;points=[];autosize=1;strokeColor=none;fillColor=none;" parent="1" vertex="1">
          <mxGeometry x="135" y="660" width="50" height="30" as="geometry" />
        </mxCell>
        <mxCell id="ofzu4_VkUkSll2sHKQfo-95" value="" style="verticalLabelPosition=bottom;shadow=0;dashed=0;align=center;html=1;verticalAlign=top;strokeWidth=1;shape=mxgraph.mockup.markup.curlyBrace;whiteSpace=wrap;strokeColor=#999999;rotation=90;" parent="1" vertex="1">
          <mxGeometry x="160" y="776" width="80" height="20" as="geometry" />
        </mxCell>
        <mxCell id="ofzu4_VkUkSll2sHKQfo-96" value="" style="rounded=0;whiteSpace=wrap;html=1;fillColor=none;dashed=1;strokeColor=#FF8000;" parent="1" vertex="1">
          <mxGeometry x="140" y="727" width="40" height="120" as="geometry" />
        </mxCell>
        <mxCell id="ofzu4_VkUkSll2sHKQfo-97" value="Název" style="text;html=1;align=left;verticalAlign=middle;resizable=0;points=[];autosize=1;strokeColor=none;fillColor=none;spacing=0;" parent="1" vertex="1">
          <mxGeometry x="140" y="726" width="50" height="20" as="geometry" />
        </mxCell>
        <mxCell id="ofzu4_VkUkSll2sHKQfo-98" value="Typ" style="text;html=1;align=right;verticalAlign=middle;resizable=0;points=[];autosize=1;strokeColor=none;fillColor=none;spacing=0;" parent="1" vertex="1">
          <mxGeometry x="139" y="826" width="40" height="20" as="geometry" />
        </mxCell>
        <mxCell id="ofzu4_VkUkSll2sHKQfo-99" value="" style="labelPosition=right;align=left;strokeWidth=1;shape=mxgraph.mockup.markup.curlyBrace;html=1;shadow=0;dashed=0;strokeColor=#999999;direction=north;rotation=-180;" parent="1" vertex="1">
          <mxGeometry x="182" y="726" width="20" height="20" as="geometry" />
        </mxCell>
        <mxCell id="ofzu4_VkUkSll2sHKQfo-100" value="25 px" style="text;html=1;align=center;verticalAlign=middle;resizable=0;points=[];autosize=1;strokeColor=none;fillColor=none;" parent="1" vertex="1">
          <mxGeometry x="190" y="721" width="50" height="30" as="geometry" />
        </mxCell>
        <mxCell id="ofzu4_VkUkSll2sHKQfo-101" value="" style="labelPosition=right;align=left;strokeWidth=1;shape=mxgraph.mockup.markup.curlyBrace;html=1;shadow=0;dashed=0;strokeColor=#999999;direction=north;rotation=-180;" parent="1" vertex="1">
          <mxGeometry x="182" y="826" width="20" height="20" as="geometry" />
        </mxCell>
        <mxCell id="ofzu4_VkUkSll2sHKQfo-102" value="25 px" style="text;html=1;align=center;verticalAlign=middle;resizable=0;points=[];autosize=1;strokeColor=none;fillColor=none;" parent="1" vertex="1">
          <mxGeometry x="190" y="821" width="50" height="30" as="geometry" />
        </mxCell>
        <mxCell id="ofzu4_VkUkSll2sHKQfo-103" value="Typ proměnné char nebo unsigned char" style="whiteSpace=wrap;html=1;shape=mxgraph.basic.document" parent="1" vertex="1">
          <mxGeometry y="751" width="100" height="45" as="geometry" />
        </mxCell>
        <mxCell id="ofzu4_VkUkSll2sHKQfo-105" value="Ukazatel" style="whiteSpace=wrap;html=1;shape=mxgraph.basic.document" parent="1" vertex="1">
          <mxGeometry x="350" y="335" width="100" height="45" as="geometry" />
        </mxCell>
        <mxCell id="ofzu4_VkUkSll2sHKQfo-106" value="Ukazatel ukazující na hodnotu" style="whiteSpace=wrap;html=1;shape=mxgraph.basic.document" parent="1" vertex="1">
          <mxGeometry x="350" y="525" width="100" height="45" as="geometry" />
        </mxCell>
        <mxCell id="ofzu4_VkUkSll2sHKQfo-107" value="Pole" style="whiteSpace=wrap;html=1;shape=mxgraph.basic.document" parent="1" vertex="1">
          <mxGeometry y="1225" width="100" height="45" as="geometry" />
        </mxCell>
        <mxCell id="ofzu4_VkUkSll2sHKQfo-110" value="" style="rounded=0;whiteSpace=wrap;html=1;strokeColor=default;strokeWidth=1;perimeterSpacing=0;opacity=40;" parent="1" vertex="1">
          <mxGeometry x="140" y="1190" width="80" height="80" as="geometry" />
        </mxCell>
        <mxCell id="ofzu4_VkUkSll2sHKQfo-111" value="" style="verticalLabelPosition=bottom;shadow=0;dashed=0;align=center;html=1;verticalAlign=top;strokeWidth=1;shape=mxgraph.mockup.markup.curlyBrace;whiteSpace=wrap;strokeColor=#999999;" parent="1" vertex="1">
          <mxGeometry x="140" y="1130" width="320" height="20" as="geometry" />
        </mxCell>
        <mxCell id="ofzu4_VkUkSll2sHKQfo-112" value="" style="verticalLabelPosition=bottom;shadow=0;dashed=0;align=center;html=1;verticalAlign=top;strokeWidth=1;shape=mxgraph.mockup.markup.curlyBrace;whiteSpace=wrap;strokeColor=#999999;rotation=90;" parent="1" vertex="1">
          <mxGeometry x="450" y="1215" width="80" height="20" as="geometry" />
        </mxCell>
        <mxCell id="ofzu4_VkUkSll2sHKQfo-113" value="70 px" style="text;html=1;align=center;verticalAlign=middle;resizable=0;points=[];autosize=1;strokeColor=none;fillColor=none;" parent="1" vertex="1">
          <mxGeometry x="500" y="1210" width="50" height="30" as="geometry" />
        </mxCell>
        <mxCell id="ofzu4_VkUkSll2sHKQfo-114" value="" style="rounded=0;whiteSpace=wrap;html=1;fillColor=none;dashed=1;strokeColor=#00CC00;" parent="1" vertex="1">
          <mxGeometry x="140" y="1170" width="320" height="120" as="geometry" />
        </mxCell>
        <mxCell id="ofzu4_VkUkSll2sHKQfo-115" value="Název[index]" style="text;html=1;align=left;verticalAlign=middle;resizable=0;points=[];autosize=1;strokeColor=none;fillColor=none;spacing=0;" parent="1" vertex="1">
          <mxGeometry x="140" y="1170" width="90" height="20" as="geometry" />
        </mxCell>
        <mxCell id="ofzu4_VkUkSll2sHKQfo-116" value="Typ" style="text;html=1;align=right;verticalAlign=middle;resizable=0;points=[];autosize=1;strokeColor=none;fillColor=none;spacing=0;" parent="1" vertex="1">
          <mxGeometry x="420" y="1270" width="40" height="20" as="geometry" />
        </mxCell>
        <mxCell id="ofzu4_VkUkSll2sHKQfo-117" value="" style="labelPosition=right;align=left;strokeWidth=1;shape=mxgraph.mockup.markup.curlyBrace;html=1;shadow=0;dashed=0;strokeColor=#999999;direction=north;rotation=-180;" parent="1" vertex="1">
          <mxGeometry x="472" y="1165" width="20" height="20" as="geometry" />
        </mxCell>
        <mxCell id="ofzu4_VkUkSll2sHKQfo-118" value="25 px" style="text;html=1;align=center;verticalAlign=middle;resizable=0;points=[];autosize=1;strokeColor=none;fillColor=none;" parent="1" vertex="1">
          <mxGeometry x="480" y="1160" width="50" height="30" as="geometry" />
        </mxCell>
        <mxCell id="ofzu4_VkUkSll2sHKQfo-119" value="" style="labelPosition=right;align=left;strokeWidth=1;shape=mxgraph.mockup.markup.curlyBrace;html=1;shadow=0;dashed=0;strokeColor=#999999;direction=north;rotation=-180;" parent="1" vertex="1">
          <mxGeometry x="472" y="1265" width="20" height="20" as="geometry" />
        </mxCell>
        <mxCell id="ofzu4_VkUkSll2sHKQfo-120" value="25 px" style="text;html=1;align=center;verticalAlign=middle;resizable=0;points=[];autosize=1;strokeColor=none;fillColor=none;" parent="1" vertex="1">
          <mxGeometry x="480" y="1260" width="50" height="30" as="geometry" />
        </mxCell>
        <mxCell id="ofzu4_VkUkSll2sHKQfo-121" value="Délka závislá na délce a typu pole" style="text;html=1;align=center;verticalAlign=middle;resizable=0;points=[];autosize=1;strokeColor=none;fillColor=none;" parent="1" vertex="1">
          <mxGeometry x="195" y="1100" width="200" height="30" as="geometry" />
        </mxCell>
        <mxCell id="ofzu4_VkUkSll2sHKQfo-122" value="" style="rounded=0;whiteSpace=wrap;html=1;strokeColor=default;strokeWidth=1;perimeterSpacing=0;opacity=40;" parent="1" vertex="1">
          <mxGeometry x="220" y="1190" width="80" height="80" as="geometry" />
        </mxCell>
        <mxCell id="ofzu4_VkUkSll2sHKQfo-123" value="Název[index]" style="text;html=1;align=left;verticalAlign=middle;resizable=0;points=[];autosize=1;strokeColor=none;fillColor=none;spacing=0;" parent="1" vertex="1">
          <mxGeometry x="220" y="1170" width="90" height="20" as="geometry" />
        </mxCell>
        <mxCell id="ofzu4_VkUkSll2sHKQfo-124" value="" style="rounded=0;whiteSpace=wrap;html=1;strokeColor=default;strokeWidth=1;perimeterSpacing=0;opacity=40;" parent="1" vertex="1">
          <mxGeometry x="300" y="1190" width="80" height="80" as="geometry" />
        </mxCell>
        <mxCell id="ofzu4_VkUkSll2sHKQfo-125" value="Název[index]" style="text;html=1;align=left;verticalAlign=middle;resizable=0;points=[];autosize=1;strokeColor=none;fillColor=none;spacing=0;" parent="1" vertex="1">
          <mxGeometry x="300" y="1170" width="90" height="20" as="geometry" />
        </mxCell>
        <mxCell id="ofzu4_VkUkSll2sHKQfo-126" value="" style="rounded=0;whiteSpace=wrap;html=1;strokeColor=default;strokeWidth=1;perimeterSpacing=0;opacity=40;" parent="1" vertex="1">
          <mxGeometry x="380" y="1190" width="80" height="80" as="geometry" />
        </mxCell>
        <mxCell id="ofzu4_VkUkSll2sHKQfo-127" value="Název[index]" style="text;html=1;align=left;verticalAlign=middle;resizable=0;points=[];autosize=1;strokeColor=none;fillColor=none;spacing=0;" parent="1" vertex="1">
          <mxGeometry x="380" y="1170" width="90" height="20" as="geometry" />
        </mxCell>
        <mxCell id="ofzu4_VkUkSll2sHKQfo-151" value="Nepojmenované pole" style="whiteSpace=wrap;html=1;shape=mxgraph.basic.document" parent="1" vertex="1">
          <mxGeometry y="1418" width="100" height="45" as="geometry" />
        </mxCell>
        <mxCell id="ofzu4_VkUkSll2sHKQfo-152" value="" style="rounded=0;whiteSpace=wrap;html=1;strokeColor=default;strokeWidth=1;perimeterSpacing=0;opacity=40;" parent="1" vertex="1">
          <mxGeometry x="140" y="1405" width="80" height="80" as="geometry" />
        </mxCell>
        <mxCell id="ofzu4_VkUkSll2sHKQfo-154" value="[index]" style="text;html=1;align=left;verticalAlign=middle;resizable=0;points=[];autosize=1;strokeColor=none;fillColor=none;spacing=0;" parent="1" vertex="1">
          <mxGeometry x="141" y="1385" width="50" height="20" as="geometry" />
        </mxCell>
        <mxCell id="ofzu4_VkUkSll2sHKQfo-156" value="" style="rounded=0;whiteSpace=wrap;html=1;strokeColor=default;strokeWidth=1;perimeterSpacing=0;opacity=40;" parent="1" vertex="1">
          <mxGeometry x="220" y="1405" width="80" height="80" as="geometry" />
        </mxCell>
        <mxCell id="ofzu4_VkUkSll2sHKQfo-157" value="[index]" style="text;html=1;align=left;verticalAlign=middle;resizable=0;points=[];autosize=1;strokeColor=none;fillColor=none;spacing=0;" parent="1" vertex="1">
          <mxGeometry x="221" y="1386" width="50" height="20" as="geometry" />
        </mxCell>
        <mxCell id="ofzu4_VkUkSll2sHKQfo-158" value="" style="rounded=0;whiteSpace=wrap;html=1;strokeColor=default;strokeWidth=1;perimeterSpacing=0;opacity=40;" parent="1" vertex="1">
          <mxGeometry x="300" y="1405" width="80" height="80" as="geometry" />
        </mxCell>
        <mxCell id="ofzu4_VkUkSll2sHKQfo-159" value="[index]" style="text;html=1;align=left;verticalAlign=middle;resizable=0;points=[];autosize=1;strokeColor=none;fillColor=none;spacing=0;" parent="1" vertex="1">
          <mxGeometry x="301" y="1385" width="50" height="20" as="geometry" />
        </mxCell>
        <mxCell id="ofzu4_VkUkSll2sHKQfo-160" value="" style="rounded=0;whiteSpace=wrap;html=1;strokeColor=default;strokeWidth=1;perimeterSpacing=0;opacity=40;" parent="1" vertex="1">
          <mxGeometry x="380" y="1405" width="80" height="80" as="geometry" />
        </mxCell>
        <mxCell id="ofzu4_VkUkSll2sHKQfo-161" value="[index]" style="text;html=1;align=left;verticalAlign=middle;resizable=0;points=[];autosize=1;strokeColor=none;fillColor=none;spacing=0;" parent="1" vertex="1">
          <mxGeometry x="380" y="1386" width="50" height="20" as="geometry" />
        </mxCell>
        <mxCell id="ofzu4_VkUkSll2sHKQfo-162" value="Typ" style="text;html=1;align=right;verticalAlign=middle;resizable=0;points=[];autosize=1;strokeColor=none;fillColor=none;spacing=0;" parent="1" vertex="1">
          <mxGeometry x="420" y="1486" width="40" height="20" as="geometry" />
        </mxCell>
        <mxCell id="ofzu4_VkUkSll2sHKQfo-163" value="" style="rounded=0;whiteSpace=wrap;html=1;fillColor=none;dashed=1;strokeColor=#00CC00;" parent="1" vertex="1">
          <mxGeometry x="140" y="1384" width="320" height="120" as="geometry" />
        </mxCell>
        <mxCell id="ofzu4_VkUkSll2sHKQfo-164" value="" style="verticalLabelPosition=bottom;shadow=0;dashed=0;align=center;html=1;verticalAlign=top;strokeWidth=1;shape=mxgraph.mockup.markup.curlyBrace;whiteSpace=wrap;strokeColor=#999999;rotation=90;" parent="1" vertex="1">
          <mxGeometry x="455" y="1435" width="80" height="20" as="geometry" />
        </mxCell>
        <mxCell id="ofzu4_VkUkSll2sHKQfo-165" value="70 px" style="text;html=1;align=center;verticalAlign=middle;resizable=0;points=[];autosize=1;strokeColor=none;fillColor=none;" parent="1" vertex="1">
          <mxGeometry x="505" y="1430" width="50" height="30" as="geometry" />
        </mxCell>
        <mxCell id="ofzu4_VkUkSll2sHKQfo-166" value="" style="labelPosition=right;align=left;strokeWidth=1;shape=mxgraph.mockup.markup.curlyBrace;html=1;shadow=0;dashed=0;strokeColor=#999999;direction=north;rotation=-180;" parent="1" vertex="1">
          <mxGeometry x="477" y="1385" width="20" height="20" as="geometry" />
        </mxCell>
        <mxCell id="ofzu4_VkUkSll2sHKQfo-167" value="25 px" style="text;html=1;align=center;verticalAlign=middle;resizable=0;points=[];autosize=1;strokeColor=none;fillColor=none;" parent="1" vertex="1">
          <mxGeometry x="485" y="1380" width="50" height="30" as="geometry" />
        </mxCell>
        <mxCell id="ofzu4_VkUkSll2sHKQfo-168" value="" style="labelPosition=right;align=left;strokeWidth=1;shape=mxgraph.mockup.markup.curlyBrace;html=1;shadow=0;dashed=0;strokeColor=#999999;direction=north;rotation=-180;" parent="1" vertex="1">
          <mxGeometry x="477" y="1485" width="20" height="20" as="geometry" />
        </mxCell>
        <mxCell id="ofzu4_VkUkSll2sHKQfo-169" value="25 px" style="text;html=1;align=center;verticalAlign=middle;resizable=0;points=[];autosize=1;strokeColor=none;fillColor=none;" parent="1" vertex="1">
          <mxGeometry x="485" y="1480" width="50" height="30" as="geometry" />
        </mxCell>
        <mxCell id="ofzu4_VkUkSll2sHKQfo-170" value="" style="verticalLabelPosition=bottom;shadow=0;dashed=0;align=center;html=1;verticalAlign=top;strokeWidth=1;shape=mxgraph.mockup.markup.curlyBrace;whiteSpace=wrap;strokeColor=#999999;" parent="1" vertex="1">
          <mxGeometry x="140" y="1346" width="320" height="20" as="geometry" />
        </mxCell>
        <mxCell id="ofzu4_VkUkSll2sHKQfo-171" value="Délka závislá na délce a typu pole" style="text;html=1;align=center;verticalAlign=middle;resizable=0;points=[];autosize=1;strokeColor=none;fillColor=none;" parent="1" vertex="1">
          <mxGeometry x="195" y="1316" width="200" height="30" as="geometry" />
        </mxCell>
        <mxCell id="RMItHFJsb13K6G-oBjnl-5" value="&lt;font style=&quot;font-size: 10px; color: light-dark(rgb(255, 255, 255), rgb(255, 255, 255));&quot;&gt;Code segment&lt;/font&gt;" style="rounded=0;whiteSpace=wrap;html=1;fillColor=#808080;strokeColor=none;textDirection=vertical-lr;" vertex="1" parent="1">
          <mxGeometry x="1320" y="34" width="44" height="110" as="geometry" />
        </mxCell>
        <mxCell id="RMItHFJsb13K6G-oBjnl-39" value="" style="endArrow=none;html=1;rounded=0;" edge="1" parent="1">
          <mxGeometry width="50" height="50" relative="1" as="geometry">
            <mxPoint x="1010" y="144" as="sourcePoint" />
            <mxPoint x="1010" y="34" as="targetPoint" />
          </mxGeometry>
        </mxCell>
        <mxCell id="RMItHFJsb13K6G-oBjnl-40" value="" style="endArrow=none;html=1;rounded=0;" edge="1" parent="1">
          <mxGeometry width="50" height="50" relative="1" as="geometry">
            <mxPoint x="1010" y="66" as="sourcePoint" />
            <mxPoint x="1032" y="44" as="targetPoint" />
          </mxGeometry>
        </mxCell>
        <mxCell id="RMItHFJsb13K6G-oBjnl-41" value="" style="endArrow=none;html=1;rounded=0;" edge="1" parent="1">
          <mxGeometry width="50" height="50" relative="1" as="geometry">
            <mxPoint x="1010" y="86" as="sourcePoint" />
            <mxPoint x="1032" y="64" as="targetPoint" />
          </mxGeometry>
        </mxCell>
        <mxCell id="RMItHFJsb13K6G-oBjnl-42" value="" style="endArrow=none;html=1;rounded=0;" edge="1" parent="1">
          <mxGeometry width="50" height="50" relative="1" as="geometry">
            <mxPoint x="1010" y="104" as="sourcePoint" />
            <mxPoint x="1032" y="82" as="targetPoint" />
            <Array as="points">
              <mxPoint x="1022" y="92" />
            </Array>
          </mxGeometry>
        </mxCell>
        <mxCell id="RMItHFJsb13K6G-oBjnl-43" value="" style="endArrow=none;html=1;rounded=0;" edge="1" parent="1">
          <mxGeometry width="50" height="50" relative="1" as="geometry">
            <mxPoint x="1010" y="126" as="sourcePoint" />
            <mxPoint x="1032" y="104" as="targetPoint" />
          </mxGeometry>
        </mxCell>
        <mxCell id="RMItHFJsb13K6G-oBjnl-44" value="" style="endArrow=none;html=1;rounded=0;" edge="1" parent="1">
          <mxGeometry width="50" height="50" relative="1" as="geometry">
            <mxPoint x="1010" y="144" as="sourcePoint" />
            <mxPoint x="1032" y="122" as="targetPoint" />
          </mxGeometry>
        </mxCell>
        <mxCell id="RMItHFJsb13K6G-oBjnl-46" value="" style="endArrow=none;html=1;rounded=0;" edge="1" parent="1">
          <mxGeometry width="50" height="50" relative="1" as="geometry">
            <mxPoint x="1010" y="46" as="sourcePoint" />
            <mxPoint x="1022" y="34" as="targetPoint" />
          </mxGeometry>
        </mxCell>
        <mxCell id="RMItHFJsb13K6G-oBjnl-61" value="" style="endArrow=none;html=1;rounded=0;" edge="1" parent="1">
          <mxGeometry width="50" height="50" relative="1" as="geometry">
            <mxPoint x="1032" y="144" as="sourcePoint" />
            <mxPoint x="1032" y="34" as="targetPoint" />
          </mxGeometry>
        </mxCell>
        <mxCell id="RMItHFJsb13K6G-oBjnl-62" value="Oddělovač segmentů paměti" style="whiteSpace=wrap;html=1;shape=mxgraph.basic.document" vertex="1" parent="1">
          <mxGeometry x="890" y="71.5" width="100" height="45" as="geometry" />
        </mxCell>
        <mxCell id="RMItHFJsb13K6G-oBjnl-63" value="Oddělovač zásobníku a haldy" style="whiteSpace=wrap;html=1;shape=mxgraph.basic.document" vertex="1" parent="1">
          <mxGeometry x="890" y="237.5" width="100" height="45" as="geometry" />
        </mxCell>
        <mxCell id="RMItHFJsb13K6G-oBjnl-64" value="" style="endArrow=none;html=1;rounded=0;dashed=1;dashPattern=8 8;" edge="1" parent="1">
          <mxGeometry width="50" height="50" relative="1" as="geometry">
            <mxPoint x="1009" y="310" as="sourcePoint" />
            <mxPoint x="1009" y="200" as="targetPoint" />
          </mxGeometry>
        </mxCell>
        <mxCell id="RMItHFJsb13K6G-oBjnl-65" value="" style="endArrow=none;html=1;rounded=0;dashed=1;dashPattern=8 8;" edge="1" parent="1">
          <mxGeometry width="50" height="50" relative="1" as="geometry">
            <mxPoint x="1034" y="310" as="sourcePoint" />
            <mxPoint x="1034" y="200" as="targetPoint" />
          </mxGeometry>
        </mxCell>
        <mxCell id="RMItHFJsb13K6G-oBjnl-68" value="Symbol segmentu kódu" style="whiteSpace=wrap;html=1;shape=mxgraph.basic.document" vertex="1" parent="1">
          <mxGeometry x="1200" y="71.5" width="100" height="45" as="geometry" />
        </mxCell>
        <mxCell id="RMItHFJsb13K6G-oBjnl-69" value="" style="rounded=0;whiteSpace=wrap;html=1;fillColor=none;" vertex="1" parent="1">
          <mxGeometry x="1008" y="416" width="493" height="110" as="geometry" />
        </mxCell>
        <mxCell id="RMItHFJsb13K6G-oBjnl-70" value="Vizualizace paměťového prostoru" style="whiteSpace=wrap;html=1;shape=mxgraph.basic.document" vertex="1" parent="1">
          <mxGeometry x="890" y="446" width="100" height="45" as="geometry" />
        </mxCell>
        <mxCell id="RMItHFJsb13K6G-oBjnl-71" value="" style="endArrow=none;html=1;rounded=0;" edge="1" parent="1">
          <mxGeometry width="50" height="50" relative="1" as="geometry">
            <mxPoint x="1008" y="526" as="sourcePoint" />
            <mxPoint x="1008" y="416" as="targetPoint" />
          </mxGeometry>
        </mxCell>
        <mxCell id="RMItHFJsb13K6G-oBjnl-72" value="" style="endArrow=none;html=1;rounded=0;" edge="1" parent="1">
          <mxGeometry width="50" height="50" relative="1" as="geometry">
            <mxPoint x="1008" y="448" as="sourcePoint" />
            <mxPoint x="1030" y="426" as="targetPoint" />
          </mxGeometry>
        </mxCell>
        <mxCell id="RMItHFJsb13K6G-oBjnl-73" value="" style="endArrow=none;html=1;rounded=0;" edge="1" parent="1">
          <mxGeometry width="50" height="50" relative="1" as="geometry">
            <mxPoint x="1008" y="468" as="sourcePoint" />
            <mxPoint x="1030" y="446" as="targetPoint" />
          </mxGeometry>
        </mxCell>
        <mxCell id="RMItHFJsb13K6G-oBjnl-74" value="" style="endArrow=none;html=1;rounded=0;" edge="1" parent="1">
          <mxGeometry width="50" height="50" relative="1" as="geometry">
            <mxPoint x="1008" y="486" as="sourcePoint" />
            <mxPoint x="1030" y="464" as="targetPoint" />
            <Array as="points">
              <mxPoint x="1020" y="474" />
            </Array>
          </mxGeometry>
        </mxCell>
        <mxCell id="RMItHFJsb13K6G-oBjnl-75" value="" style="endArrow=none;html=1;rounded=0;" edge="1" parent="1">
          <mxGeometry width="50" height="50" relative="1" as="geometry">
            <mxPoint x="1008" y="508" as="sourcePoint" />
            <mxPoint x="1030" y="486" as="targetPoint" />
          </mxGeometry>
        </mxCell>
        <mxCell id="RMItHFJsb13K6G-oBjnl-76" value="" style="endArrow=none;html=1;rounded=0;" edge="1" parent="1">
          <mxGeometry width="50" height="50" relative="1" as="geometry">
            <mxPoint x="1008" y="526" as="sourcePoint" />
            <mxPoint x="1030" y="504" as="targetPoint" />
          </mxGeometry>
        </mxCell>
        <mxCell id="RMItHFJsb13K6G-oBjnl-77" value="" style="endArrow=none;html=1;rounded=0;" edge="1" parent="1">
          <mxGeometry width="50" height="50" relative="1" as="geometry">
            <mxPoint x="1008" y="428" as="sourcePoint" />
            <mxPoint x="1020" y="416" as="targetPoint" />
          </mxGeometry>
        </mxCell>
        <mxCell id="RMItHFJsb13K6G-oBjnl-78" value="" style="endArrow=none;html=1;rounded=0;" edge="1" parent="1">
          <mxGeometry width="50" height="50" relative="1" as="geometry">
            <mxPoint x="1030" y="526" as="sourcePoint" />
            <mxPoint x="1030" y="416" as="targetPoint" />
          </mxGeometry>
        </mxCell>
        <mxCell id="RMItHFJsb13K6G-oBjnl-79" value="&lt;font style=&quot;font-size: 10px; color: light-dark(rgb(255, 255, 255), rgb(255, 255, 255));&quot;&gt;Code segment&lt;/font&gt;" style="rounded=0;whiteSpace=wrap;html=1;fillColor=#808080;strokeColor=none;textDirection=vertical-lr;" vertex="1" parent="1">
          <mxGeometry x="1030" y="416" width="44" height="110" as="geometry" />
        </mxCell>
        <mxCell id="RMItHFJsb13K6G-oBjnl-80" value="" style="endArrow=none;html=1;rounded=0;" edge="1" parent="1">
          <mxGeometry width="50" height="50" relative="1" as="geometry">
            <mxPoint x="1074" y="526" as="sourcePoint" />
            <mxPoint x="1074" y="416" as="targetPoint" />
          </mxGeometry>
        </mxCell>
        <mxCell id="RMItHFJsb13K6G-oBjnl-81" value="" style="endArrow=none;html=1;rounded=0;" edge="1" parent="1">
          <mxGeometry width="50" height="50" relative="1" as="geometry">
            <mxPoint x="1074" y="448" as="sourcePoint" />
            <mxPoint x="1096" y="426" as="targetPoint" />
          </mxGeometry>
        </mxCell>
        <mxCell id="RMItHFJsb13K6G-oBjnl-82" value="" style="endArrow=none;html=1;rounded=0;" edge="1" parent="1">
          <mxGeometry width="50" height="50" relative="1" as="geometry">
            <mxPoint x="1074" y="468" as="sourcePoint" />
            <mxPoint x="1096" y="446" as="targetPoint" />
          </mxGeometry>
        </mxCell>
        <mxCell id="RMItHFJsb13K6G-oBjnl-83" value="" style="endArrow=none;html=1;rounded=0;" edge="1" parent="1">
          <mxGeometry width="50" height="50" relative="1" as="geometry">
            <mxPoint x="1074" y="486" as="sourcePoint" />
            <mxPoint x="1096" y="464" as="targetPoint" />
            <Array as="points">
              <mxPoint x="1086" y="474" />
            </Array>
          </mxGeometry>
        </mxCell>
        <mxCell id="RMItHFJsb13K6G-oBjnl-84" value="" style="endArrow=none;html=1;rounded=0;" edge="1" parent="1">
          <mxGeometry width="50" height="50" relative="1" as="geometry">
            <mxPoint x="1074" y="508" as="sourcePoint" />
            <mxPoint x="1096" y="486" as="targetPoint" />
          </mxGeometry>
        </mxCell>
        <mxCell id="RMItHFJsb13K6G-oBjnl-85" value="" style="endArrow=none;html=1;rounded=0;" edge="1" parent="1">
          <mxGeometry width="50" height="50" relative="1" as="geometry">
            <mxPoint x="1074" y="526" as="sourcePoint" />
            <mxPoint x="1096" y="504" as="targetPoint" />
          </mxGeometry>
        </mxCell>
        <mxCell id="RMItHFJsb13K6G-oBjnl-86" value="" style="endArrow=none;html=1;rounded=0;" edge="1" parent="1">
          <mxGeometry width="50" height="50" relative="1" as="geometry">
            <mxPoint x="1074" y="428" as="sourcePoint" />
            <mxPoint x="1086" y="416" as="targetPoint" />
          </mxGeometry>
        </mxCell>
        <mxCell id="RMItHFJsb13K6G-oBjnl-87" value="" style="endArrow=none;html=1;rounded=0;" edge="1" parent="1">
          <mxGeometry width="50" height="50" relative="1" as="geometry">
            <mxPoint x="1096" y="526" as="sourcePoint" />
            <mxPoint x="1096" y="416" as="targetPoint" />
          </mxGeometry>
        </mxCell>
        <mxCell id="RMItHFJsb13K6G-oBjnl-88" value="Data" style="text;html=1;align=center;verticalAlign=middle;resizable=0;points=[];autosize=1;strokeColor=none;fillColor=none;rotation=45;fontSize=9;" vertex="1" parent="1">
          <mxGeometry x="1068" y="392" width="40" height="20" as="geometry" />
        </mxCell>
        <mxCell id="RMItHFJsb13K6G-oBjnl-143" style="rounded=0;orthogonalLoop=1;jettySize=auto;html=1;endArrow=none;endFill=0;" edge="1" parent="1" source="RMItHFJsb13K6G-oBjnl-89" target="RMItHFJsb13K6G-oBjnl-88">
          <mxGeometry relative="1" as="geometry" />
        </mxCell>
        <mxCell id="RMItHFJsb13K6G-oBjnl-148" style="rounded=0;orthogonalLoop=1;jettySize=auto;html=1;endArrow=none;endFill=0;" edge="1" parent="1" source="RMItHFJsb13K6G-oBjnl-89">
          <mxGeometry relative="1" as="geometry">
            <mxPoint x="1357" y="397" as="targetPoint" />
          </mxGeometry>
        </mxCell>
        <mxCell id="RMItHFJsb13K6G-oBjnl-89" value="Štítky datových segmentů" style="whiteSpace=wrap;html=1;shape=mxgraph.basic.document" vertex="1" parent="1">
          <mxGeometry x="1165" y="330" width="100" height="40" as="geometry" />
        </mxCell>
        <mxCell id="RMItHFJsb13K6G-oBjnl-90" value="" style="rounded=0;whiteSpace=wrap;html=1;fillColor=none;dashed=1;strokeColor=#999900;" vertex="1" parent="1">
          <mxGeometry x="1097" y="441" width="34" height="55" as="geometry" />
        </mxCell>
        <mxCell id="RMItHFJsb13K6G-oBjnl-92" value="" style="endArrow=none;html=1;rounded=0;" edge="1" parent="1">
          <mxGeometry width="50" height="50" relative="1" as="geometry">
            <mxPoint x="1165" y="526" as="sourcePoint" />
            <mxPoint x="1165" y="416" as="targetPoint" />
          </mxGeometry>
        </mxCell>
        <mxCell id="RMItHFJsb13K6G-oBjnl-93" value="" style="endArrow=none;html=1;rounded=0;" edge="1" parent="1">
          <mxGeometry width="50" height="50" relative="1" as="geometry">
            <mxPoint x="1165" y="448" as="sourcePoint" />
            <mxPoint x="1187" y="426" as="targetPoint" />
          </mxGeometry>
        </mxCell>
        <mxCell id="RMItHFJsb13K6G-oBjnl-94" value="" style="endArrow=none;html=1;rounded=0;" edge="1" parent="1">
          <mxGeometry width="50" height="50" relative="1" as="geometry">
            <mxPoint x="1165" y="468" as="sourcePoint" />
            <mxPoint x="1187" y="446" as="targetPoint" />
          </mxGeometry>
        </mxCell>
        <mxCell id="RMItHFJsb13K6G-oBjnl-95" value="" style="endArrow=none;html=1;rounded=0;" edge="1" parent="1">
          <mxGeometry width="50" height="50" relative="1" as="geometry">
            <mxPoint x="1165" y="486" as="sourcePoint" />
            <mxPoint x="1187" y="464" as="targetPoint" />
            <Array as="points">
              <mxPoint x="1177" y="474" />
            </Array>
          </mxGeometry>
        </mxCell>
        <mxCell id="RMItHFJsb13K6G-oBjnl-96" value="" style="endArrow=none;html=1;rounded=0;" edge="1" parent="1">
          <mxGeometry width="50" height="50" relative="1" as="geometry">
            <mxPoint x="1165" y="508" as="sourcePoint" />
            <mxPoint x="1187" y="486" as="targetPoint" />
          </mxGeometry>
        </mxCell>
        <mxCell id="RMItHFJsb13K6G-oBjnl-97" value="" style="endArrow=none;html=1;rounded=0;" edge="1" parent="1">
          <mxGeometry width="50" height="50" relative="1" as="geometry">
            <mxPoint x="1165" y="526" as="sourcePoint" />
            <mxPoint x="1187" y="504" as="targetPoint" />
          </mxGeometry>
        </mxCell>
        <mxCell id="RMItHFJsb13K6G-oBjnl-98" value="" style="endArrow=none;html=1;rounded=0;" edge="1" parent="1">
          <mxGeometry width="50" height="50" relative="1" as="geometry">
            <mxPoint x="1165" y="428" as="sourcePoint" />
            <mxPoint x="1177" y="416" as="targetPoint" />
          </mxGeometry>
        </mxCell>
        <mxCell id="RMItHFJsb13K6G-oBjnl-99" value="" style="endArrow=none;html=1;rounded=0;" edge="1" parent="1">
          <mxGeometry width="50" height="50" relative="1" as="geometry">
            <mxPoint x="1187" y="526" as="sourcePoint" />
            <mxPoint x="1187" y="416" as="targetPoint" />
          </mxGeometry>
        </mxCell>
        <mxCell id="RMItHFJsb13K6G-oBjnl-100" value="BSS" style="text;html=1;align=center;verticalAlign=middle;resizable=0;points=[];autosize=1;strokeColor=none;fillColor=none;rotation=45;fontSize=9;" vertex="1" parent="1">
          <mxGeometry x="1155" y="392" width="40" height="20" as="geometry" />
        </mxCell>
        <mxCell id="RMItHFJsb13K6G-oBjnl-101" value="Heap" style="text;html=1;align=center;verticalAlign=middle;resizable=0;points=[];autosize=1;strokeColor=none;fillColor=none;rotation=45;fontSize=9;" vertex="1" parent="1">
          <mxGeometry x="1215" y="392" width="50" height="20" as="geometry" />
        </mxCell>
        <mxCell id="RMItHFJsb13K6G-oBjnl-106" value="" style="rounded=0;whiteSpace=wrap;html=1;fillColor=none;dashed=1;strokeColor=#999900;" vertex="1" parent="1">
          <mxGeometry x="1131" y="441" width="34" height="55" as="geometry" />
        </mxCell>
        <mxCell id="RMItHFJsb13K6G-oBjnl-107" value="" style="rounded=0;whiteSpace=wrap;html=1;fillColor=none;dashed=1;strokeColor=#999900;" vertex="1" parent="1">
          <mxGeometry x="1188" y="441" width="34" height="55" as="geometry" />
        </mxCell>
        <mxCell id="RMItHFJsb13K6G-oBjnl-116" value="" style="endArrow=none;html=1;rounded=0;" edge="1" parent="1">
          <mxGeometry width="50" height="50" relative="1" as="geometry">
            <mxPoint x="1223" y="526" as="sourcePoint" />
            <mxPoint x="1223" y="416" as="targetPoint" />
          </mxGeometry>
        </mxCell>
        <mxCell id="RMItHFJsb13K6G-oBjnl-117" value="" style="endArrow=none;html=1;rounded=0;" edge="1" parent="1">
          <mxGeometry width="50" height="50" relative="1" as="geometry">
            <mxPoint x="1223" y="448" as="sourcePoint" />
            <mxPoint x="1245" y="426" as="targetPoint" />
          </mxGeometry>
        </mxCell>
        <mxCell id="RMItHFJsb13K6G-oBjnl-118" value="" style="endArrow=none;html=1;rounded=0;" edge="1" parent="1">
          <mxGeometry width="50" height="50" relative="1" as="geometry">
            <mxPoint x="1223" y="468" as="sourcePoint" />
            <mxPoint x="1245" y="446" as="targetPoint" />
          </mxGeometry>
        </mxCell>
        <mxCell id="RMItHFJsb13K6G-oBjnl-119" value="" style="endArrow=none;html=1;rounded=0;" edge="1" parent="1">
          <mxGeometry width="50" height="50" relative="1" as="geometry">
            <mxPoint x="1223" y="486" as="sourcePoint" />
            <mxPoint x="1245" y="464" as="targetPoint" />
            <Array as="points">
              <mxPoint x="1235" y="474" />
            </Array>
          </mxGeometry>
        </mxCell>
        <mxCell id="RMItHFJsb13K6G-oBjnl-120" value="" style="endArrow=none;html=1;rounded=0;" edge="1" parent="1">
          <mxGeometry width="50" height="50" relative="1" as="geometry">
            <mxPoint x="1223" y="508" as="sourcePoint" />
            <mxPoint x="1245" y="486" as="targetPoint" />
          </mxGeometry>
        </mxCell>
        <mxCell id="RMItHFJsb13K6G-oBjnl-121" value="" style="endArrow=none;html=1;rounded=0;" edge="1" parent="1">
          <mxGeometry width="50" height="50" relative="1" as="geometry">
            <mxPoint x="1223" y="526" as="sourcePoint" />
            <mxPoint x="1245" y="504" as="targetPoint" />
          </mxGeometry>
        </mxCell>
        <mxCell id="RMItHFJsb13K6G-oBjnl-122" value="" style="endArrow=none;html=1;rounded=0;" edge="1" parent="1">
          <mxGeometry width="50" height="50" relative="1" as="geometry">
            <mxPoint x="1223" y="428" as="sourcePoint" />
            <mxPoint x="1235" y="416" as="targetPoint" />
          </mxGeometry>
        </mxCell>
        <mxCell id="RMItHFJsb13K6G-oBjnl-123" value="" style="endArrow=none;html=1;rounded=0;" edge="1" parent="1">
          <mxGeometry width="50" height="50" relative="1" as="geometry">
            <mxPoint x="1245" y="526" as="sourcePoint" />
            <mxPoint x="1245" y="416" as="targetPoint" />
          </mxGeometry>
        </mxCell>
        <mxCell id="RMItHFJsb13K6G-oBjnl-124" value="" style="rounded=0;whiteSpace=wrap;html=1;fillColor=none;dashed=1;strokeColor=#999900;" vertex="1" parent="1">
          <mxGeometry x="1246" y="440.5" width="34" height="55" as="geometry" />
        </mxCell>
        <mxCell id="RMItHFJsb13K6G-oBjnl-125" value="" style="rounded=0;whiteSpace=wrap;html=1;fillColor=none;dashed=1;strokeColor=#999900;" vertex="1" parent="1">
          <mxGeometry x="1280" y="440.5" width="34" height="55" as="geometry" />
        </mxCell>
        <mxCell id="RMItHFJsb13K6G-oBjnl-126" value="" style="rounded=0;whiteSpace=wrap;html=1;fillColor=none;dashed=1;strokeColor=#999900;" vertex="1" parent="1">
          <mxGeometry x="1314" y="441" width="34" height="55" as="geometry" />
        </mxCell>
        <mxCell id="RMItHFJsb13K6G-oBjnl-130" value="Stack" style="text;html=1;align=center;verticalAlign=middle;resizable=0;points=[];autosize=1;strokeColor=none;fillColor=none;rotation=45;fontSize=9;" vertex="1" parent="1">
          <mxGeometry x="1344" y="392" width="50" height="20" as="geometry" />
        </mxCell>
        <mxCell id="RMItHFJsb13K6G-oBjnl-131" value="" style="rounded=0;whiteSpace=wrap;html=1;fillColor=none;dashed=1;strokeColor=#999900;" vertex="1" parent="1">
          <mxGeometry x="1376" y="441" width="34" height="55" as="geometry" />
        </mxCell>
        <mxCell id="RMItHFJsb13K6G-oBjnl-132" value="" style="rounded=0;whiteSpace=wrap;html=1;fillColor=none;dashed=1;strokeColor=#999900;" vertex="1" parent="1">
          <mxGeometry x="1410" y="441" width="34" height="55" as="geometry" />
        </mxCell>
        <mxCell id="RMItHFJsb13K6G-oBjnl-133" value="" style="rounded=0;whiteSpace=wrap;html=1;fillColor=none;dashed=1;strokeColor=#999900;" vertex="1" parent="1">
          <mxGeometry x="1444" y="441.5" width="34" height="55" as="geometry" />
        </mxCell>
        <mxCell id="RMItHFJsb13K6G-oBjnl-134" value="" style="endArrow=none;html=1;rounded=0;" edge="1" parent="1">
          <mxGeometry width="50" height="50" relative="1" as="geometry">
            <mxPoint x="1479" y="526" as="sourcePoint" />
            <mxPoint x="1479" y="416" as="targetPoint" />
          </mxGeometry>
        </mxCell>
        <mxCell id="RMItHFJsb13K6G-oBjnl-135" value="" style="endArrow=none;html=1;rounded=0;" edge="1" parent="1">
          <mxGeometry width="50" height="50" relative="1" as="geometry">
            <mxPoint x="1479" y="448" as="sourcePoint" />
            <mxPoint x="1501" y="426" as="targetPoint" />
          </mxGeometry>
        </mxCell>
        <mxCell id="RMItHFJsb13K6G-oBjnl-136" value="" style="endArrow=none;html=1;rounded=0;" edge="1" parent="1">
          <mxGeometry width="50" height="50" relative="1" as="geometry">
            <mxPoint x="1479" y="468" as="sourcePoint" />
            <mxPoint x="1501" y="446" as="targetPoint" />
          </mxGeometry>
        </mxCell>
        <mxCell id="RMItHFJsb13K6G-oBjnl-137" value="" style="endArrow=none;html=1;rounded=0;" edge="1" parent="1">
          <mxGeometry width="50" height="50" relative="1" as="geometry">
            <mxPoint x="1479" y="486" as="sourcePoint" />
            <mxPoint x="1501" y="464" as="targetPoint" />
            <Array as="points">
              <mxPoint x="1491" y="474" />
            </Array>
          </mxGeometry>
        </mxCell>
        <mxCell id="RMItHFJsb13K6G-oBjnl-138" value="" style="endArrow=none;html=1;rounded=0;" edge="1" parent="1">
          <mxGeometry width="50" height="50" relative="1" as="geometry">
            <mxPoint x="1479" y="508" as="sourcePoint" />
            <mxPoint x="1501" y="486" as="targetPoint" />
          </mxGeometry>
        </mxCell>
        <mxCell id="RMItHFJsb13K6G-oBjnl-139" value="" style="endArrow=none;html=1;rounded=0;" edge="1" parent="1">
          <mxGeometry width="50" height="50" relative="1" as="geometry">
            <mxPoint x="1479" y="526" as="sourcePoint" />
            <mxPoint x="1501" y="504" as="targetPoint" />
          </mxGeometry>
        </mxCell>
        <mxCell id="RMItHFJsb13K6G-oBjnl-140" value="" style="endArrow=none;html=1;rounded=0;" edge="1" parent="1">
          <mxGeometry width="50" height="50" relative="1" as="geometry">
            <mxPoint x="1479" y="428" as="sourcePoint" />
            <mxPoint x="1491" y="416" as="targetPoint" />
          </mxGeometry>
        </mxCell>
        <mxCell id="RMItHFJsb13K6G-oBjnl-145" style="rounded=0;orthogonalLoop=1;jettySize=auto;html=1;entryX=0.553;entryY=0.253;entryDx=0;entryDy=0;entryPerimeter=0;endArrow=none;endFill=0;" edge="1" parent="1" source="RMItHFJsb13K6G-oBjnl-89" target="RMItHFJsb13K6G-oBjnl-100">
          <mxGeometry relative="1" as="geometry" />
        </mxCell>
        <mxCell id="RMItHFJsb13K6G-oBjnl-147" style="rounded=0;orthogonalLoop=1;jettySize=auto;html=1;endArrow=none;endFill=0;entryX=0.303;entryY=0.122;entryDx=0;entryDy=0;entryPerimeter=0;" edge="1" parent="1" source="RMItHFJsb13K6G-oBjnl-89" target="RMItHFJsb13K6G-oBjnl-101">
          <mxGeometry relative="1" as="geometry" />
        </mxCell>
        <mxCell id="RMItHFJsb13K6G-oBjnl-149" value="" style="verticalLabelPosition=bottom;shadow=0;dashed=0;align=center;html=1;verticalAlign=top;strokeWidth=1;shape=mxgraph.mockup.markup.curlyBrace;whiteSpace=wrap;strokeColor=#999999;rotation=-180;" vertex="1" parent="1">
          <mxGeometry x="1008" y="150" width="25" height="20" as="geometry" />
        </mxCell>
        <mxCell id="RMItHFJsb13K6G-oBjnl-150" value="" style="labelPosition=right;align=left;strokeWidth=1;shape=mxgraph.mockup.markup.curlyBrace;html=1;shadow=0;dashed=0;strokeColor=#999999;direction=north;rotation=-180;" vertex="1" parent="1">
          <mxGeometry x="1048" y="34" width="20" height="111" as="geometry" />
        </mxCell>
        <mxCell id="RMItHFJsb13K6G-oBjnl-151" value="50 px" style="text;html=1;align=center;verticalAlign=middle;resizable=0;points=[];autosize=1;strokeColor=none;fillColor=none;" vertex="1" parent="1">
          <mxGeometry x="995" y="158" width="50" height="30" as="geometry" />
        </mxCell>
        <mxCell id="RMItHFJsb13K6G-oBjnl-152" value="" style="verticalLabelPosition=bottom;shadow=0;dashed=0;align=center;html=1;verticalAlign=top;strokeWidth=1;shape=mxgraph.mockup.markup.curlyBrace;whiteSpace=wrap;strokeColor=#999999;rotation=-180;" vertex="1" parent="1">
          <mxGeometry x="1009" y="312" width="25" height="20" as="geometry" />
        </mxCell>
        <mxCell id="RMItHFJsb13K6G-oBjnl-153" value="50 px" style="text;html=1;align=center;verticalAlign=middle;resizable=0;points=[];autosize=1;strokeColor=none;fillColor=none;" vertex="1" parent="1">
          <mxGeometry x="996" y="320" width="50" height="30" as="geometry" />
        </mxCell>
        <mxCell id="RMItHFJsb13K6G-oBjnl-154" value="" style="verticalLabelPosition=bottom;shadow=0;dashed=0;align=center;html=1;verticalAlign=top;strokeWidth=1;shape=mxgraph.mockup.markup.curlyBrace;whiteSpace=wrap;strokeColor=#999999;rotation=-180;" vertex="1" parent="1">
          <mxGeometry x="1319" y="158" width="44" height="10" as="geometry" />
        </mxCell>
        <mxCell id="RMItHFJsb13K6G-oBjnl-155" value="70 px" style="text;html=1;align=center;verticalAlign=middle;resizable=0;points=[];autosize=1;strokeColor=none;fillColor=none;" vertex="1" parent="1">
          <mxGeometry x="1316" y="162" width="50" height="30" as="geometry" />
        </mxCell>
        <mxCell id="RMItHFJsb13K6G-oBjnl-156" value="" style="labelPosition=right;align=left;strokeWidth=1;shape=mxgraph.mockup.markup.curlyBrace;html=1;shadow=0;dashed=0;strokeColor=#999999;direction=north;rotation=-180;" vertex="1" parent="1">
          <mxGeometry x="1383" y="33.5" width="20" height="111" as="geometry" />
        </mxCell>
        <mxCell id="RMItHFJsb13K6G-oBjnl-157" value="" style="labelPosition=right;align=left;strokeWidth=1;shape=mxgraph.mockup.markup.curlyBrace;html=1;shadow=0;dashed=0;strokeColor=#999999;direction=north;rotation=-180;" vertex="1" parent="1">
          <mxGeometry x="1048" y="206" width="20" height="106" as="geometry" />
        </mxCell>
        <mxCell id="RMItHFJsb13K6G-oBjnl-158" value="200 px" style="text;html=1;align=center;verticalAlign=middle;resizable=0;points=[];autosize=1;strokeColor=none;fillColor=none;" vertex="1" parent="1">
          <mxGeometry x="1068" y="74.5" width="60" height="30" as="geometry" />
        </mxCell>
        <mxCell id="RMItHFJsb13K6G-oBjnl-159" value="200 px" style="text;html=1;align=center;verticalAlign=middle;resizable=0;points=[];autosize=1;strokeColor=none;fillColor=none;" vertex="1" parent="1">
          <mxGeometry x="1403" y="74" width="60" height="30" as="geometry" />
        </mxCell>
        <mxCell id="RMItHFJsb13K6G-oBjnl-160" value="200 px" style="text;html=1;align=center;verticalAlign=middle;resizable=0;points=[];autosize=1;strokeColor=none;fillColor=none;" vertex="1" parent="1">
          <mxGeometry x="1068" y="245" width="60" height="30" as="geometry" />
        </mxCell>
        <mxCell id="RMItHFJsb13K6G-oBjnl-161" value="" style="labelPosition=right;align=left;strokeWidth=1;shape=mxgraph.mockup.markup.curlyBrace;html=1;shadow=0;dashed=0;strokeColor=#999999;direction=north;rotation=-180;" vertex="1" parent="1">
          <mxGeometry x="1510" y="415" width="20" height="111" as="geometry" />
        </mxCell>
        <mxCell id="RMItHFJsb13K6G-oBjnl-162" value="200 px" style="text;html=1;align=center;verticalAlign=middle;resizable=0;points=[];autosize=1;strokeColor=none;fillColor=none;" vertex="1" parent="1">
          <mxGeometry x="1530" y="455.5" width="60" height="30" as="geometry" />
        </mxCell>
        <mxCell id="RMItHFJsb13K6G-oBjnl-164" style="rounded=0;orthogonalLoop=1;jettySize=auto;html=1;endArrow=none;endFill=0;dashed=1;dashPattern=8 8;" edge="1" parent="1" source="RMItHFJsb13K6G-oBjnl-163" target="RMItHFJsb13K6G-oBjnl-90">
          <mxGeometry relative="1" as="geometry" />
        </mxCell>
        <mxCell id="RMItHFJsb13K6G-oBjnl-163" value="Zarovnání na střed vertikálně" style="whiteSpace=wrap;html=1;shape=mxgraph.basic.document" vertex="1" parent="1">
          <mxGeometry x="1048" y="555" width="100" height="45" as="geometry" />
        </mxCell>
        <mxCell id="RMItHFJsb13K6G-oBjnl-166" style="rounded=0;orthogonalLoop=1;jettySize=auto;html=1;endArrow=none;endFill=0;dashed=1;dashPattern=8 8;" edge="1" parent="1" source="RMItHFJsb13K6G-oBjnl-165">
          <mxGeometry relative="1" as="geometry">
            <mxPoint x="154" y="787" as="targetPoint" />
          </mxGeometry>
        </mxCell>
        <mxCell id="RMItHFJsb13K6G-oBjnl-165" value="Hodnota převedena na znak ASCII" style="whiteSpace=wrap;html=1;shape=mxgraph.basic.document" vertex="1" parent="1">
          <mxGeometry y="821" width="100" height="45" as="geometry" />
        </mxCell>
        <mxCell id="RMItHFJsb13K6G-oBjnl-167" value="" style="ellipse;whiteSpace=wrap;html=1;aspect=fixed;" vertex="1" parent="1">
          <mxGeometry x="1010" y="209" width="1" height="1" as="geometry" />
        </mxCell>
        <mxCell id="RMItHFJsb13K6G-oBjnl-168" value="" style="ellipse;whiteSpace=wrap;html=1;aspect=fixed;" vertex="1" parent="1">
          <mxGeometry x="1017" y="209" width="1" height="1" as="geometry" />
        </mxCell>
        <mxCell id="RMItHFJsb13K6G-oBjnl-169" value="" style="ellipse;whiteSpace=wrap;html=1;aspect=fixed;" vertex="1" parent="1">
          <mxGeometry x="1024" y="209" width="1" height="1" as="geometry" />
        </mxCell>
        <mxCell id="RMItHFJsb13K6G-oBjnl-170" value="" style="ellipse;whiteSpace=wrap;html=1;aspect=fixed;" vertex="1" parent="1">
          <mxGeometry x="1031" y="209" width="1" height="1" as="geometry" />
        </mxCell>
        <mxCell id="RMItHFJsb13K6G-oBjnl-171" value="" style="ellipse;whiteSpace=wrap;html=1;aspect=fixed;" vertex="1" parent="1">
          <mxGeometry x="1010" y="220" width="1" height="1" as="geometry" />
        </mxCell>
        <mxCell id="RMItHFJsb13K6G-oBjnl-172" value="" style="ellipse;whiteSpace=wrap;html=1;aspect=fixed;" vertex="1" parent="1">
          <mxGeometry x="1017" y="220" width="1" height="1" as="geometry" />
        </mxCell>
        <mxCell id="RMItHFJsb13K6G-oBjnl-173" value="" style="ellipse;whiteSpace=wrap;html=1;aspect=fixed;" vertex="1" parent="1">
          <mxGeometry x="1024" y="220" width="1" height="1" as="geometry" />
        </mxCell>
        <mxCell id="RMItHFJsb13K6G-oBjnl-174" value="" style="ellipse;whiteSpace=wrap;html=1;aspect=fixed;" vertex="1" parent="1">
          <mxGeometry x="1031" y="220" width="1" height="1" as="geometry" />
        </mxCell>
        <mxCell id="RMItHFJsb13K6G-oBjnl-175" value="" style="ellipse;whiteSpace=wrap;html=1;aspect=fixed;" vertex="1" parent="1">
          <mxGeometry x="1010" y="230" width="1" height="1" as="geometry" />
        </mxCell>
        <mxCell id="RMItHFJsb13K6G-oBjnl-176" value="" style="ellipse;whiteSpace=wrap;html=1;aspect=fixed;" vertex="1" parent="1">
          <mxGeometry x="1017" y="230" width="1" height="1" as="geometry" />
        </mxCell>
        <mxCell id="RMItHFJsb13K6G-oBjnl-177" value="" style="ellipse;whiteSpace=wrap;html=1;aspect=fixed;" vertex="1" parent="1">
          <mxGeometry x="1024" y="230" width="1" height="1" as="geometry" />
        </mxCell>
        <mxCell id="RMItHFJsb13K6G-oBjnl-178" value="" style="ellipse;whiteSpace=wrap;html=1;aspect=fixed;" vertex="1" parent="1">
          <mxGeometry x="1031" y="230" width="1" height="1" as="geometry" />
        </mxCell>
        <mxCell id="RMItHFJsb13K6G-oBjnl-179" value="" style="ellipse;whiteSpace=wrap;html=1;aspect=fixed;" vertex="1" parent="1">
          <mxGeometry x="1010" y="240" width="1" height="1" as="geometry" />
        </mxCell>
        <mxCell id="RMItHFJsb13K6G-oBjnl-180" value="" style="ellipse;whiteSpace=wrap;html=1;aspect=fixed;" vertex="1" parent="1">
          <mxGeometry x="1017" y="240" width="1" height="1" as="geometry" />
        </mxCell>
        <mxCell id="RMItHFJsb13K6G-oBjnl-181" value="" style="ellipse;whiteSpace=wrap;html=1;aspect=fixed;" vertex="1" parent="1">
          <mxGeometry x="1024" y="240" width="1" height="1" as="geometry" />
        </mxCell>
        <mxCell id="RMItHFJsb13K6G-oBjnl-182" value="" style="ellipse;whiteSpace=wrap;html=1;aspect=fixed;" vertex="1" parent="1">
          <mxGeometry x="1031" y="240" width="1" height="1" as="geometry" />
        </mxCell>
        <mxCell id="RMItHFJsb13K6G-oBjnl-183" value="" style="ellipse;whiteSpace=wrap;html=1;aspect=fixed;" vertex="1" parent="1">
          <mxGeometry x="1010" y="249.5" width="1" height="1" as="geometry" />
        </mxCell>
        <mxCell id="RMItHFJsb13K6G-oBjnl-184" value="" style="ellipse;whiteSpace=wrap;html=1;aspect=fixed;" vertex="1" parent="1">
          <mxGeometry x="1017" y="249.5" width="1" height="1" as="geometry" />
        </mxCell>
        <mxCell id="RMItHFJsb13K6G-oBjnl-185" value="" style="ellipse;whiteSpace=wrap;html=1;aspect=fixed;" vertex="1" parent="1">
          <mxGeometry x="1024" y="249.5" width="1" height="1" as="geometry" />
        </mxCell>
        <mxCell id="RMItHFJsb13K6G-oBjnl-186" value="" style="ellipse;whiteSpace=wrap;html=1;aspect=fixed;" vertex="1" parent="1">
          <mxGeometry x="1031" y="249.5" width="1" height="1" as="geometry" />
        </mxCell>
        <mxCell id="RMItHFJsb13K6G-oBjnl-187" value="" style="ellipse;whiteSpace=wrap;html=1;aspect=fixed;" vertex="1" parent="1">
          <mxGeometry x="1010" y="259.5" width="1" height="1" as="geometry" />
        </mxCell>
        <mxCell id="RMItHFJsb13K6G-oBjnl-188" value="" style="ellipse;whiteSpace=wrap;html=1;aspect=fixed;" vertex="1" parent="1">
          <mxGeometry x="1017" y="259.5" width="1" height="1" as="geometry" />
        </mxCell>
        <mxCell id="RMItHFJsb13K6G-oBjnl-189" value="" style="ellipse;whiteSpace=wrap;html=1;aspect=fixed;" vertex="1" parent="1">
          <mxGeometry x="1024" y="259.5" width="1" height="1" as="geometry" />
        </mxCell>
        <mxCell id="RMItHFJsb13K6G-oBjnl-195" value="" style="ellipse;whiteSpace=wrap;html=1;aspect=fixed;" vertex="1" parent="1">
          <mxGeometry x="1031" y="259.5" width="1" height="1" as="geometry" />
        </mxCell>
        <mxCell id="RMItHFJsb13K6G-oBjnl-196" value="" style="ellipse;whiteSpace=wrap;html=1;aspect=fixed;" vertex="1" parent="1">
          <mxGeometry x="1010" y="269.5" width="1" height="1" as="geometry" />
        </mxCell>
        <mxCell id="RMItHFJsb13K6G-oBjnl-197" value="" style="ellipse;whiteSpace=wrap;html=1;aspect=fixed;" vertex="1" parent="1">
          <mxGeometry x="1017" y="269.5" width="1" height="1" as="geometry" />
        </mxCell>
        <mxCell id="RMItHFJsb13K6G-oBjnl-198" value="" style="ellipse;whiteSpace=wrap;html=1;aspect=fixed;" vertex="1" parent="1">
          <mxGeometry x="1024" y="269.5" width="1" height="1" as="geometry" />
        </mxCell>
        <mxCell id="RMItHFJsb13K6G-oBjnl-199" value="" style="ellipse;whiteSpace=wrap;html=1;aspect=fixed;" vertex="1" parent="1">
          <mxGeometry x="1031" y="269.5" width="1" height="1" as="geometry" />
        </mxCell>
        <mxCell id="RMItHFJsb13K6G-oBjnl-200" value="" style="ellipse;whiteSpace=wrap;html=1;aspect=fixed;" vertex="1" parent="1">
          <mxGeometry x="1010" y="279.5" width="1" height="1" as="geometry" />
        </mxCell>
        <mxCell id="RMItHFJsb13K6G-oBjnl-201" value="" style="ellipse;whiteSpace=wrap;html=1;aspect=fixed;" vertex="1" parent="1">
          <mxGeometry x="1017" y="279.5" width="1" height="1" as="geometry" />
        </mxCell>
        <mxCell id="RMItHFJsb13K6G-oBjnl-202" value="" style="ellipse;whiteSpace=wrap;html=1;aspect=fixed;" vertex="1" parent="1">
          <mxGeometry x="1024" y="279.5" width="1" height="1" as="geometry" />
        </mxCell>
        <mxCell id="RMItHFJsb13K6G-oBjnl-203" value="" style="ellipse;whiteSpace=wrap;html=1;aspect=fixed;" vertex="1" parent="1">
          <mxGeometry x="1031" y="279.5" width="1" height="1" as="geometry" />
        </mxCell>
        <mxCell id="RMItHFJsb13K6G-oBjnl-204" value="" style="ellipse;whiteSpace=wrap;html=1;aspect=fixed;" vertex="1" parent="1">
          <mxGeometry x="1010" y="289.5" width="1" height="1" as="geometry" />
        </mxCell>
        <mxCell id="RMItHFJsb13K6G-oBjnl-205" value="" style="ellipse;whiteSpace=wrap;html=1;aspect=fixed;" vertex="1" parent="1">
          <mxGeometry x="1017" y="289.5" width="1" height="1" as="geometry" />
        </mxCell>
        <mxCell id="RMItHFJsb13K6G-oBjnl-206" value="" style="ellipse;whiteSpace=wrap;html=1;aspect=fixed;" vertex="1" parent="1">
          <mxGeometry x="1024" y="289.5" width="1" height="1" as="geometry" />
        </mxCell>
        <mxCell id="RMItHFJsb13K6G-oBjnl-207" value="" style="ellipse;whiteSpace=wrap;html=1;aspect=fixed;" vertex="1" parent="1">
          <mxGeometry x="1031" y="289.5" width="1" height="1" as="geometry" />
        </mxCell>
        <mxCell id="RMItHFJsb13K6G-oBjnl-208" value="" style="ellipse;whiteSpace=wrap;html=1;aspect=fixed;" vertex="1" parent="1">
          <mxGeometry x="1010" y="299.5" width="1" height="1" as="geometry" />
        </mxCell>
        <mxCell id="RMItHFJsb13K6G-oBjnl-209" value="" style="ellipse;whiteSpace=wrap;html=1;aspect=fixed;" vertex="1" parent="1">
          <mxGeometry x="1017" y="299.5" width="1" height="1" as="geometry" />
        </mxCell>
        <mxCell id="RMItHFJsb13K6G-oBjnl-210" value="" style="ellipse;whiteSpace=wrap;html=1;aspect=fixed;" vertex="1" parent="1">
          <mxGeometry x="1024" y="299.5" width="1" height="1" as="geometry" />
        </mxCell>
        <mxCell id="RMItHFJsb13K6G-oBjnl-211" value="" style="ellipse;whiteSpace=wrap;html=1;aspect=fixed;" vertex="1" parent="1">
          <mxGeometry x="1031" y="299.5" width="1" height="1" as="geometry" />
        </mxCell>
        <mxCell id="RMItHFJsb13K6G-oBjnl-212" value="" style="ellipse;whiteSpace=wrap;html=1;aspect=fixed;" vertex="1" parent="1">
          <mxGeometry x="1010" y="309.5" width="1" height="1" as="geometry" />
        </mxCell>
        <mxCell id="RMItHFJsb13K6G-oBjnl-213" value="" style="ellipse;whiteSpace=wrap;html=1;aspect=fixed;" vertex="1" parent="1">
          <mxGeometry x="1017" y="309.5" width="1" height="1" as="geometry" />
        </mxCell>
        <mxCell id="RMItHFJsb13K6G-oBjnl-214" value="" style="ellipse;whiteSpace=wrap;html=1;aspect=fixed;" vertex="1" parent="1">
          <mxGeometry x="1024" y="309.5" width="1" height="1" as="geometry" />
        </mxCell>
        <mxCell id="RMItHFJsb13K6G-oBjnl-215" value="" style="ellipse;whiteSpace=wrap;html=1;aspect=fixed;" vertex="1" parent="1">
          <mxGeometry x="1031" y="309.5" width="1" height="1" as="geometry" />
        </mxCell>
        <mxCell id="RMItHFJsb13K6G-oBjnl-354" value="" style="endArrow=none;html=1;rounded=0;dashed=1;dashPattern=8 8;" edge="1" parent="1">
          <mxGeometry width="50" height="50" relative="1" as="geometry">
            <mxPoint x="1350.81" y="524.5" as="sourcePoint" />
            <mxPoint x="1350.81" y="414.5" as="targetPoint" />
          </mxGeometry>
        </mxCell>
        <mxCell id="RMItHFJsb13K6G-oBjnl-355" value="" style="endArrow=none;html=1;rounded=0;dashed=1;dashPattern=8 8;" edge="1" parent="1">
          <mxGeometry width="50" height="50" relative="1" as="geometry">
            <mxPoint x="1375.81" y="524.5" as="sourcePoint" />
            <mxPoint x="1375.81" y="414.5" as="targetPoint" />
          </mxGeometry>
        </mxCell>
        <mxCell id="RMItHFJsb13K6G-oBjnl-356" value="" style="ellipse;whiteSpace=wrap;html=1;aspect=fixed;" vertex="1" parent="1">
          <mxGeometry x="1351.81" y="423.5" width="1" height="1" as="geometry" />
        </mxCell>
        <mxCell id="RMItHFJsb13K6G-oBjnl-357" value="" style="ellipse;whiteSpace=wrap;html=1;aspect=fixed;" vertex="1" parent="1">
          <mxGeometry x="1358.81" y="423.5" width="1" height="1" as="geometry" />
        </mxCell>
        <mxCell id="RMItHFJsb13K6G-oBjnl-358" value="" style="ellipse;whiteSpace=wrap;html=1;aspect=fixed;" vertex="1" parent="1">
          <mxGeometry x="1365.81" y="423.5" width="1" height="1" as="geometry" />
        </mxCell>
        <mxCell id="RMItHFJsb13K6G-oBjnl-359" value="" style="ellipse;whiteSpace=wrap;html=1;aspect=fixed;" vertex="1" parent="1">
          <mxGeometry x="1372.81" y="423.5" width="1" height="1" as="geometry" />
        </mxCell>
        <mxCell id="RMItHFJsb13K6G-oBjnl-360" value="" style="ellipse;whiteSpace=wrap;html=1;aspect=fixed;" vertex="1" parent="1">
          <mxGeometry x="1351.81" y="434.5" width="1" height="1" as="geometry" />
        </mxCell>
        <mxCell id="RMItHFJsb13K6G-oBjnl-361" value="" style="ellipse;whiteSpace=wrap;html=1;aspect=fixed;" vertex="1" parent="1">
          <mxGeometry x="1358.81" y="434.5" width="1" height="1" as="geometry" />
        </mxCell>
        <mxCell id="RMItHFJsb13K6G-oBjnl-362" value="" style="ellipse;whiteSpace=wrap;html=1;aspect=fixed;" vertex="1" parent="1">
          <mxGeometry x="1365.81" y="434.5" width="1" height="1" as="geometry" />
        </mxCell>
        <mxCell id="RMItHFJsb13K6G-oBjnl-363" value="" style="ellipse;whiteSpace=wrap;html=1;aspect=fixed;" vertex="1" parent="1">
          <mxGeometry x="1372.81" y="434.5" width="1" height="1" as="geometry" />
        </mxCell>
        <mxCell id="RMItHFJsb13K6G-oBjnl-364" value="" style="ellipse;whiteSpace=wrap;html=1;aspect=fixed;" vertex="1" parent="1">
          <mxGeometry x="1351.81" y="444.5" width="1" height="1" as="geometry" />
        </mxCell>
        <mxCell id="RMItHFJsb13K6G-oBjnl-365" value="" style="ellipse;whiteSpace=wrap;html=1;aspect=fixed;" vertex="1" parent="1">
          <mxGeometry x="1358.81" y="444.5" width="1" height="1" as="geometry" />
        </mxCell>
        <mxCell id="RMItHFJsb13K6G-oBjnl-366" value="" style="ellipse;whiteSpace=wrap;html=1;aspect=fixed;" vertex="1" parent="1">
          <mxGeometry x="1365.81" y="444.5" width="1" height="1" as="geometry" />
        </mxCell>
        <mxCell id="RMItHFJsb13K6G-oBjnl-367" value="" style="ellipse;whiteSpace=wrap;html=1;aspect=fixed;" vertex="1" parent="1">
          <mxGeometry x="1372.81" y="444.5" width="1" height="1" as="geometry" />
        </mxCell>
        <mxCell id="RMItHFJsb13K6G-oBjnl-368" value="" style="ellipse;whiteSpace=wrap;html=1;aspect=fixed;" vertex="1" parent="1">
          <mxGeometry x="1351.81" y="454.5" width="1" height="1" as="geometry" />
        </mxCell>
        <mxCell id="RMItHFJsb13K6G-oBjnl-369" value="" style="ellipse;whiteSpace=wrap;html=1;aspect=fixed;" vertex="1" parent="1">
          <mxGeometry x="1358.81" y="454.5" width="1" height="1" as="geometry" />
        </mxCell>
        <mxCell id="RMItHFJsb13K6G-oBjnl-370" value="" style="ellipse;whiteSpace=wrap;html=1;aspect=fixed;" vertex="1" parent="1">
          <mxGeometry x="1365.81" y="454.5" width="1" height="1" as="geometry" />
        </mxCell>
        <mxCell id="RMItHFJsb13K6G-oBjnl-371" value="" style="ellipse;whiteSpace=wrap;html=1;aspect=fixed;" vertex="1" parent="1">
          <mxGeometry x="1372.81" y="454.5" width="1" height="1" as="geometry" />
        </mxCell>
        <mxCell id="RMItHFJsb13K6G-oBjnl-372" value="" style="ellipse;whiteSpace=wrap;html=1;aspect=fixed;" vertex="1" parent="1">
          <mxGeometry x="1351.81" y="464" width="1" height="1" as="geometry" />
        </mxCell>
        <mxCell id="RMItHFJsb13K6G-oBjnl-373" value="" style="ellipse;whiteSpace=wrap;html=1;aspect=fixed;" vertex="1" parent="1">
          <mxGeometry x="1358.81" y="464" width="1" height="1" as="geometry" />
        </mxCell>
        <mxCell id="RMItHFJsb13K6G-oBjnl-374" value="" style="ellipse;whiteSpace=wrap;html=1;aspect=fixed;" vertex="1" parent="1">
          <mxGeometry x="1365.81" y="464" width="1" height="1" as="geometry" />
        </mxCell>
        <mxCell id="RMItHFJsb13K6G-oBjnl-375" value="" style="ellipse;whiteSpace=wrap;html=1;aspect=fixed;" vertex="1" parent="1">
          <mxGeometry x="1372.81" y="464" width="1" height="1" as="geometry" />
        </mxCell>
        <mxCell id="RMItHFJsb13K6G-oBjnl-376" value="" style="ellipse;whiteSpace=wrap;html=1;aspect=fixed;" vertex="1" parent="1">
          <mxGeometry x="1351.81" y="474" width="1" height="1" as="geometry" />
        </mxCell>
        <mxCell id="RMItHFJsb13K6G-oBjnl-377" value="" style="ellipse;whiteSpace=wrap;html=1;aspect=fixed;" vertex="1" parent="1">
          <mxGeometry x="1358.81" y="474" width="1" height="1" as="geometry" />
        </mxCell>
        <mxCell id="RMItHFJsb13K6G-oBjnl-378" value="" style="ellipse;whiteSpace=wrap;html=1;aspect=fixed;" vertex="1" parent="1">
          <mxGeometry x="1365.81" y="474" width="1" height="1" as="geometry" />
        </mxCell>
        <mxCell id="RMItHFJsb13K6G-oBjnl-379" value="" style="ellipse;whiteSpace=wrap;html=1;aspect=fixed;" vertex="1" parent="1">
          <mxGeometry x="1372.81" y="474" width="1" height="1" as="geometry" />
        </mxCell>
        <mxCell id="RMItHFJsb13K6G-oBjnl-380" value="" style="ellipse;whiteSpace=wrap;html=1;aspect=fixed;" vertex="1" parent="1">
          <mxGeometry x="1351.81" y="484" width="1" height="1" as="geometry" />
        </mxCell>
        <mxCell id="RMItHFJsb13K6G-oBjnl-381" value="" style="ellipse;whiteSpace=wrap;html=1;aspect=fixed;" vertex="1" parent="1">
          <mxGeometry x="1358.81" y="484" width="1" height="1" as="geometry" />
        </mxCell>
        <mxCell id="RMItHFJsb13K6G-oBjnl-382" value="" style="ellipse;whiteSpace=wrap;html=1;aspect=fixed;" vertex="1" parent="1">
          <mxGeometry x="1365.81" y="484" width="1" height="1" as="geometry" />
        </mxCell>
        <mxCell id="RMItHFJsb13K6G-oBjnl-383" value="" style="ellipse;whiteSpace=wrap;html=1;aspect=fixed;" vertex="1" parent="1">
          <mxGeometry x="1372.81" y="484" width="1" height="1" as="geometry" />
        </mxCell>
        <mxCell id="RMItHFJsb13K6G-oBjnl-384" value="" style="ellipse;whiteSpace=wrap;html=1;aspect=fixed;" vertex="1" parent="1">
          <mxGeometry x="1351.81" y="494" width="1" height="1" as="geometry" />
        </mxCell>
        <mxCell id="RMItHFJsb13K6G-oBjnl-385" value="" style="ellipse;whiteSpace=wrap;html=1;aspect=fixed;" vertex="1" parent="1">
          <mxGeometry x="1358.81" y="494" width="1" height="1" as="geometry" />
        </mxCell>
        <mxCell id="RMItHFJsb13K6G-oBjnl-386" value="" style="ellipse;whiteSpace=wrap;html=1;aspect=fixed;" vertex="1" parent="1">
          <mxGeometry x="1365.81" y="494" width="1" height="1" as="geometry" />
        </mxCell>
        <mxCell id="RMItHFJsb13K6G-oBjnl-387" value="" style="ellipse;whiteSpace=wrap;html=1;aspect=fixed;" vertex="1" parent="1">
          <mxGeometry x="1372.81" y="494" width="1" height="1" as="geometry" />
        </mxCell>
        <mxCell id="RMItHFJsb13K6G-oBjnl-388" value="" style="ellipse;whiteSpace=wrap;html=1;aspect=fixed;" vertex="1" parent="1">
          <mxGeometry x="1351.81" y="504" width="1" height="1" as="geometry" />
        </mxCell>
        <mxCell id="RMItHFJsb13K6G-oBjnl-389" value="" style="ellipse;whiteSpace=wrap;html=1;aspect=fixed;" vertex="1" parent="1">
          <mxGeometry x="1358.81" y="504" width="1" height="1" as="geometry" />
        </mxCell>
        <mxCell id="RMItHFJsb13K6G-oBjnl-390" value="" style="ellipse;whiteSpace=wrap;html=1;aspect=fixed;" vertex="1" parent="1">
          <mxGeometry x="1365.81" y="504" width="1" height="1" as="geometry" />
        </mxCell>
        <mxCell id="RMItHFJsb13K6G-oBjnl-391" value="" style="ellipse;whiteSpace=wrap;html=1;aspect=fixed;" vertex="1" parent="1">
          <mxGeometry x="1372.81" y="504" width="1" height="1" as="geometry" />
        </mxCell>
        <mxCell id="RMItHFJsb13K6G-oBjnl-392" value="" style="ellipse;whiteSpace=wrap;html=1;aspect=fixed;" vertex="1" parent="1">
          <mxGeometry x="1351.81" y="514" width="1" height="1" as="geometry" />
        </mxCell>
        <mxCell id="RMItHFJsb13K6G-oBjnl-393" value="" style="ellipse;whiteSpace=wrap;html=1;aspect=fixed;" vertex="1" parent="1">
          <mxGeometry x="1358.81" y="514" width="1" height="1" as="geometry" />
        </mxCell>
        <mxCell id="RMItHFJsb13K6G-oBjnl-394" value="" style="ellipse;whiteSpace=wrap;html=1;aspect=fixed;" vertex="1" parent="1">
          <mxGeometry x="1365.81" y="514" width="1" height="1" as="geometry" />
        </mxCell>
        <mxCell id="RMItHFJsb13K6G-oBjnl-395" value="" style="ellipse;whiteSpace=wrap;html=1;aspect=fixed;" vertex="1" parent="1">
          <mxGeometry x="1372.81" y="514" width="1" height="1" as="geometry" />
        </mxCell>
        <mxCell id="RMItHFJsb13K6G-oBjnl-396" value="" style="ellipse;whiteSpace=wrap;html=1;aspect=fixed;" vertex="1" parent="1">
          <mxGeometry x="1351.81" y="524" width="1" height="1" as="geometry" />
        </mxCell>
        <mxCell id="RMItHFJsb13K6G-oBjnl-397" value="" style="ellipse;whiteSpace=wrap;html=1;aspect=fixed;" vertex="1" parent="1">
          <mxGeometry x="1358.81" y="524" width="1" height="1" as="geometry" />
        </mxCell>
        <mxCell id="RMItHFJsb13K6G-oBjnl-398" value="" style="ellipse;whiteSpace=wrap;html=1;aspect=fixed;" vertex="1" parent="1">
          <mxGeometry x="1365.81" y="524" width="1" height="1" as="geometry" />
        </mxCell>
        <mxCell id="RMItHFJsb13K6G-oBjnl-399" value="" style="ellipse;whiteSpace=wrap;html=1;aspect=fixed;" vertex="1" parent="1">
          <mxGeometry x="1372.81" y="524" width="1" height="1" as="geometry" />
        </mxCell>
      </root>
    </mxGraphModel>
  </diagram>
</mxfile>
